<svg width="939" height="294" viewBox="0 0 939 294" fill="none" xmlns="http://www.w3.org/2000/svg">
<g filter="url(#filter0_d_145_269)">
<path d="M426.5 120.406C426.938 119.719 427.641 118.328 428.609 116.234C429.234 114.922 429.672 114.234 429.922 114.172C430.484 113.703 431.047 113.219 431.609 112.719L432.688 111.5L434.234 110.188L436.297 108.219L437.469 107.516L438.547 106.719L439.578 106.297L440.938 105.266L443.422 104.375C444.953 103.844 445.906 103.547 446.281 103.484C447.031 103.391 447.688 103.297 448.25 103.203C448.875 103.828 449.328 104.156 449.609 104.188C449.641 104.188 450.422 103.969 451.953 103.531C452.078 103.5 452.188 103.484 452.281 103.484C452.312 103.484 453 103.656 454.344 104C454.5 104.031 454.766 104.062 455.141 104.094C455.703 104.125 456.109 104.172 456.359 104.234C457.828 103.797 458.641 103.578 458.797 103.578C459.422 103.578 460 103.781 460.531 104.188C460.375 104.969 460.156 105.484 459.875 105.734C459.594 106.016 459.078 106.266 458.328 106.484L458.047 107.75C457.047 108.219 456.391 108.594 456.078 108.875C455.672 109.156 455.391 109.312 455.234 109.344C455.234 109.344 455 109.312 454.531 109.25C454.438 109.25 454.375 109.25 454.344 109.25L452.656 109.344H452.609L451.25 109.156L450.125 109.062C449.062 108.719 448.172 108.516 447.453 108.453C447.234 108.453 446.891 108.438 446.422 108.406C445.859 108.344 445.391 108.312 445.016 108.312C444.766 108.312 443.609 108.5 441.547 108.875C440.453 109 439.734 109.141 439.391 109.297C439.047 109.516 438.375 110.125 437.375 111.125C437.125 111.406 436.578 111.609 435.734 111.734C435.641 112.453 435.469 112.922 435.219 113.141C434.906 113.391 434.344 113.578 433.531 113.703C433.594 114.047 433.625 114.359 433.625 114.641C433.625 114.766 433.203 115.438 432.359 116.656C432.109 117.031 431.984 118.938 431.984 122.375C431.984 123.125 432.375 124.516 433.156 126.547C432.656 127.422 432.391 128.062 432.359 128.469C432.547 128.625 433.078 128.812 433.953 129.031C435.328 130.781 436.203 132.062 436.578 132.875L437.703 133.016C438.172 133.641 438.484 134.016 438.641 134.141L440.422 135.312L441.688 136.25C442.875 136.719 443.609 136.984 443.891 137.047C444.078 137.109 444.797 137.172 446.047 137.234L447.781 137.609L449.422 137.703L450.641 137.844C451.266 137.781 452.297 137.422 453.734 136.766L454.578 137C454.984 136.75 455.25 136.578 455.375 136.484C455.625 136.359 456.219 135.938 457.156 135.219C457.969 135.125 458.688 134.797 459.312 134.234C459.781 133.734 460.312 133.312 460.906 132.969C461.156 132.812 461.422 132.578 461.703 132.266C462.453 131.391 463 130.953 463.344 130.953C463.594 130.953 463.844 131.109 464.094 131.422C463.781 132.703 463.625 133.781 463.625 134.656C463 135.25 462.484 135.875 462.078 136.531C461.391 136.75 460.453 137.266 459.266 138.078C458.766 138.172 458.312 138.359 457.906 138.641C457.312 139.047 456.812 139.25 456.406 139.25L454.812 139.156H454.766C453.109 139.5 452.125 139.719 451.812 139.812C451.719 139.844 451.297 140.125 450.547 140.656C450.391 140.75 450.25 140.797 450.125 140.797L445.391 140.75C445.203 140.75 444.75 140.797 444.031 140.891C443.281 140.391 442.578 140.109 441.922 140.047C441.047 139.953 439.781 139.672 438.125 139.203L437 139.062L435.688 138.641C434.844 138.453 434.312 138.328 434.094 138.266C433.906 138.172 433.672 137.984 433.391 137.703C431.766 136.109 430.953 135.172 430.953 134.891C430.953 134.641 431 134.344 431.094 134C431.062 133.906 431.047 133.859 431.047 133.859L429.453 134.141C429.453 134.141 429.422 134.109 429.359 134.047C428.797 132.891 428.391 132.156 428.141 131.844C427.641 131.125 427.375 130.547 427.344 130.109C427.312 129.922 427.25 129.359 427.156 128.422V128.281L427.391 126.969C426.516 126.344 426.078 125.906 426.078 125.656C426.078 125.562 426.812 125.094 428.281 124.25C429.094 123.781 429.5 123.078 429.5 122.141C429.5 121.234 428.5 120.656 426.5 120.406ZM471.031 126.688C471.031 124.625 471.156 123.125 471.406 122.188C471.656 121.375 472.094 120.141 472.719 118.484C474 116.109 474.734 114.766 474.922 114.453C475.109 114.172 475.828 113.625 477.078 112.812C477.109 112.781 477.344 112.312 477.781 111.406C478.062 110.906 478.297 110.609 478.484 110.516C478.828 110.234 480.031 109.594 482.094 108.594C482.75 108.281 483.5 107.688 484.344 106.812C484.469 106.688 486.344 105.953 489.969 104.609C491.844 103.891 494.578 103.531 498.172 103.531C498.891 103.531 499.828 103.656 500.984 103.906L501.172 104.891C501.609 105.078 501.984 105.297 502.297 105.547C502.766 105.391 503.141 104.984 503.422 104.328C505.141 104.703 506.641 105.328 507.922 106.203C508.891 106.797 509.438 107.172 509.562 107.328C509.625 107.422 509.938 107.969 510.5 108.969C511.125 109.938 512.188 110.438 513.688 110.469C514.438 111.719 514.906 112.641 515.094 113.234C515.312 113.828 515.516 114.828 515.703 116.234C515.891 117.672 516.031 118.797 516.125 119.609H515.375V120.172L514.438 121.25C514.562 121.781 515 122.281 515.75 122.75C515.656 124.125 515.562 125.062 515.469 125.562C515.406 125.781 515.172 126.328 514.766 127.203C513.609 129.922 512.797 131.656 512.328 132.406C510.672 134.406 509.156 135.625 507.781 136.062L505.25 137.328L502.859 138.453C501.609 139.141 500.875 139.516 500.656 139.578C500.438 139.609 498.922 139.703 496.109 139.859L492.828 140.562H489.5L488 140.75C485.25 140.281 483.531 140.031 482.844 140C482.406 139.5 482.078 139.203 481.859 139.109C481.797 139.078 481.188 138.969 480.031 138.781C479.406 138.656 478.172 137.984 476.328 136.766C476.047 136.609 475.484 136.297 474.641 135.828C474.453 135.266 474.328 134.875 474.266 134.656C474.141 134.312 474.016 134.078 473.891 133.953C473.859 133.953 473.531 133.734 472.906 133.297C472.875 133.297 472.766 133.156 472.578 132.875C471.891 131.781 471.547 130.688 471.547 129.594C471.547 129.062 471.875 128.562 472.531 128.094C472.25 127.594 471.766 127.188 471.078 126.875L471.031 126.688ZM476.188 125.75V126.219L476.609 126.641C476.922 126.359 477.234 126.203 477.547 126.172C477.797 127.234 478.016 128.047 478.203 128.609C478.359 128.953 479.172 130.312 480.641 132.688C480.672 132.75 480.688 132.844 480.688 132.969C480.688 133.25 480.531 133.703 480.219 134.328C480.344 134.766 480.766 135 481.484 135.031C481.797 134.719 482.062 134.562 482.281 134.562C482.469 134.562 483.844 135.219 486.406 136.531C487.5 137.062 488.609 137.328 489.734 137.328H492.5L493.906 137.656C494.5 137.812 495.016 137.891 495.453 137.891C496.172 137.891 496.984 137.781 497.891 137.562C498.484 137.406 499.344 137.219 500.469 137C500.781 136.906 501.844 136.234 503.656 134.984C504.875 134.578 505.562 134.297 505.719 134.141C505.938 133.891 506.531 132.969 507.5 131.375L508.672 129.031C509.453 128.281 509.906 127.812 510.031 127.625C510.156 127.406 510.219 127.109 510.219 126.734C509.719 125.984 509.484 125.484 509.516 125.234V125.188L509.703 124.25C509.766 122.812 509.953 121.641 510.266 120.734C510.016 120.141 509.719 119.203 509.375 117.922L508.625 115.484C508.562 115.172 508.516 114.531 508.484 113.562L508.297 113.375H507.172C506.828 112.719 506.125 111.734 505.062 110.422C504.438 109.641 504.078 109.219 503.984 109.156C503.922 109.062 503.625 108.906 503.094 108.688C502.656 108.5 501.875 108.188 500.75 107.75C500.438 106.656 499.938 106.109 499.25 106.109C499.062 106.109 498.578 106.266 497.797 106.578C496.828 106.328 496.281 106.203 496.156 106.203C494.531 106.203 493.469 106.234 492.969 106.297C492.438 106.328 491.625 106.688 490.531 107.375L489.547 106.672C489.078 107.297 488.719 107.672 488.469 107.797L486.453 108.828L486.125 109.203L480.5 113.938L480.078 114.266C480.016 115.141 479.922 115.688 479.797 115.906L478.859 117.547C478.547 118.422 478.156 119.156 477.688 119.75C477.719 120 477.734 120.219 477.734 120.406C477.734 121.125 477.188 121.703 476.094 122.141C476.094 122.234 476.219 122.594 476.469 123.219C477.312 123.812 477.734 124.203 477.734 124.391C477.734 124.734 477.219 125.188 476.188 125.75ZM527.375 105.312L529.297 104.094C529.328 103.562 529.391 102.875 529.484 102.031L529.438 97.3438C529.438 96.5 529.75 95.4844 530.375 94.2969C529.75 93.8594 529.344 93.4688 529.156 93.125C529.094 93.0312 529.047 91.4219 529.016 88.2969L528.969 84.9219L528.922 82.625C528.922 82.0312 529.156 81.375 529.625 80.6562C530.469 79.3125 530.891 78.5312 530.891 78.3125C530.891 78.125 530.875 77.9062 530.844 77.6562L530.141 77.3281C530.328 75.2969 531.359 73.0469 533.234 70.5781C533.859 69.6094 534.547 68.7969 535.297 68.1406C536.672 66.9844 537.672 66.1562 538.297 65.6562C538.828 65.2812 540.297 64.4531 542.703 63.1719L543.688 62.4688L545.094 62.2812C546.75 61.875 547.609 61.6719 547.672 61.6719C547.766 61.6719 548.266 61.8125 549.172 62.0938C549.359 62.1562 549.562 62.1875 549.781 62.1875C550 62.1875 550.25 62.1562 550.531 62.0938C551.125 62 551.5 61.9531 551.656 61.9531C552.875 61.9531 553.938 62.4531 554.844 63.4531H556.016C555.984 63.9844 555.875 64.3438 555.688 64.5312C555.656 64.5938 555.312 65 554.656 65.75C554.156 66.4688 553.844 66.875 553.719 66.9688C553.188 67.375 552.344 67.7969 551.188 68.2344C550.5 67.8594 549.453 67.2656 548.047 66.4531C546.891 65.7656 545.828 65.4219 544.859 65.4219C543.953 65.4219 542.547 65.9062 540.641 66.875C539.859 67.2812 539.281 67.7969 538.906 68.4219C538.031 69.7969 537.188 71.7656 536.375 74.3281L535.859 75.3594L535.203 77.9375C534.641 78.9062 534.359 79.5 534.359 79.7188C534.359 80.0625 534.672 80.3281 535.297 80.5156C535.078 81.1094 534.969 81.7344 534.969 82.3906C534.969 82.6719 534.953 83.4062 534.922 84.5938L534.969 88.0625C534.938 88.3125 534.641 89.0156 534.078 90.1719C534.016 90.2969 533.984 90.5938 533.984 91.0625C533.984 91.5625 534.25 92.2969 534.781 93.2656C534.938 93.5469 535.016 95.875 535.016 100.25C535.016 100.781 534.547 101.484 533.609 102.359V102.734C533.891 103.016 534.25 103.219 534.688 103.344C535.25 103.531 535.594 104.375 535.719 105.875C536.531 106.688 537.094 107.141 537.406 107.234L539.469 107.797L542.188 108.547L545.469 107.281L548.938 106.531C550.188 105.688 551.016 105.234 551.422 105.172C551.672 105.109 552.266 105.031 553.203 104.938C553.828 105.625 554.156 106.234 554.188 106.766C552.406 107.828 551.312 108.516 550.906 108.828C550.5 109.109 550.031 109.578 549.5 110.234C549.312 110.453 549.109 110.562 548.891 110.562C548.547 110.562 548.016 110.438 547.297 110.188C546.734 110 546.141 109.906 545.516 109.906C545.047 109.906 544.188 110.016 542.938 110.234C542.344 110.328 541.828 110.375 541.391 110.375C540.641 110.375 539.734 110.266 538.672 110.047C537.391 109.766 536.641 109.625 536.422 109.625C536.109 109.625 535.781 109.812 535.438 110.188C535.094 110.531 534.953 110.844 535.016 111.125L535.438 113.188C535.625 116.25 535.719 117.781 535.719 117.781C535.719 117.938 535.641 118.156 535.484 118.438C534.828 118.656 534.5 119 534.5 119.469C534.5 120.062 534.844 120.609 535.531 121.109C535.594 121.953 535.641 122.5 535.672 122.75C535.891 125.75 536.125 127.781 536.375 128.844L535.906 129.312L535.109 129.125L534.312 129.875C534.688 130.375 534.953 130.703 535.109 130.859C535.672 131.516 535.938 131.953 535.906 132.172V132.219L535.766 133.719V133.859C535.766 134.172 535.875 134.922 536.094 136.109L535.391 136.484V137.562C534.484 137.875 533.297 138.391 531.828 139.109C531.641 139.234 531.031 139.375 530 139.531V139.25C529.594 139.5 529.281 139.625 529.062 139.625C528.844 139.625 528.516 139.469 528.078 139.156C528.234 138.719 528.359 138.141 528.453 137.422L528.641 136.344L528.875 134.984C529.344 133.547 529.578 132.531 529.578 131.938C529.578 131.625 529.562 130.734 529.531 129.266C530.219 128.766 530.562 128.266 530.562 127.766C530.562 127.266 530.438 126.547 530.188 125.609C529.875 124.391 529.719 123.562 529.719 123.125L529.766 121.625V113.562C529.797 112.5 529.953 111.922 530.234 111.828C531.078 111.547 531.656 111.297 531.969 111.078V110.422L531.547 110C531.234 110.094 530.953 110.141 530.703 110.141C530.359 110.141 530.141 110.078 530.047 109.953L528.453 107.797L526.156 107.422C525.469 107.234 525.094 107.141 525.031 107.141C524.25 107.141 523.062 108 521.469 109.719C521.312 109.5 521.234 109.281 521.234 109.062C521.234 108.844 521.797 107.953 522.922 106.391C523.641 105.453 524.328 104.984 524.984 104.984C525.328 104.984 526.125 105.094 527.375 105.312ZM560.844 105.312L562.766 104.094C562.797 103.562 562.859 102.875 562.953 102.031L562.906 97.3438C562.906 96.5 563.219 95.4844 563.844 94.2969C563.219 93.8594 562.812 93.4688 562.625 93.125C562.562 93.0312 562.516 91.4219 562.484 88.2969L562.438 84.9219L562.391 82.625C562.391 82.0312 562.625 81.375 563.094 80.6562C563.938 79.3125 564.359 78.5312 564.359 78.3125C564.359 78.125 564.344 77.9062 564.312 77.6562L563.609 77.3281C563.797 75.2969 564.828 73.0469 566.703 70.5781C567.328 69.6094 568.016 68.7969 568.766 68.1406C570.141 66.9844 571.141 66.1562 571.766 65.6562C572.297 65.2812 573.766 64.4531 576.172 63.1719L577.156 62.4688L578.562 62.2812C580.219 61.875 581.078 61.6719 581.141 61.6719C581.234 61.6719 581.734 61.8125 582.641 62.0938C582.828 62.1562 583.031 62.1875 583.25 62.1875C583.469 62.1875 583.719 62.1562 584 62.0938C584.594 62 584.969 61.9531 585.125 61.9531C586.344 61.9531 587.406 62.4531 588.312 63.4531H589.484C589.453 63.9844 589.344 64.3438 589.156 64.5312C589.125 64.5938 588.781 65 588.125 65.75C587.625 66.4688 587.312 66.875 587.188 66.9688C586.656 67.375 585.812 67.7969 584.656 68.2344C583.969 67.8594 582.922 67.2656 581.516 66.4531C580.359 65.7656 579.297 65.4219 578.328 65.4219C577.422 65.4219 576.016 65.9062 574.109 66.875C573.328 67.2812 572.75 67.7969 572.375 68.4219C571.5 69.7969 570.656 71.7656 569.844 74.3281L569.328 75.3594L568.672 77.9375C568.109 78.9062 567.828 79.5 567.828 79.7188C567.828 80.0625 568.141 80.3281 568.766 80.5156C568.547 81.1094 568.438 81.7344 568.438 82.3906C568.438 82.6719 568.422 83.4062 568.391 84.5938L568.438 88.0625C568.406 88.3125 568.109 89.0156 567.547 90.1719C567.484 90.2969 567.453 90.5938 567.453 91.0625C567.453 91.5625 567.719 92.2969 568.25 93.2656C568.406 93.5469 568.484 95.875 568.484 100.25C568.484 100.781 568.016 101.484 567.078 102.359V102.734C567.359 103.016 567.719 103.219 568.156 103.344C568.719 103.531 569.062 104.375 569.188 105.875C570 106.688 570.562 107.141 570.875 107.234L572.938 107.797L575.656 108.547L578.938 107.281L582.406 106.531C583.656 105.688 584.484 105.234 584.891 105.172C585.141 105.109 585.734 105.031 586.672 104.938C587.297 105.625 587.625 106.234 587.656 106.766C585.875 107.828 584.781 108.516 584.375 108.828C583.969 109.109 583.5 109.578 582.969 110.234C582.781 110.453 582.578 110.562 582.359 110.562C582.016 110.562 581.484 110.438 580.766 110.188C580.203 110 579.609 109.906 578.984 109.906C578.516 109.906 577.656 110.016 576.406 110.234C575.812 110.328 575.297 110.375 574.859 110.375C574.109 110.375 573.203 110.266 572.141 110.047C570.859 109.766 570.109 109.625 569.891 109.625C569.578 109.625 569.25 109.812 568.906 110.188C568.562 110.531 568.422 110.844 568.484 111.125L568.906 113.188C569.094 116.25 569.188 117.781 569.188 117.781C569.188 117.938 569.109 118.156 568.953 118.438C568.297 118.656 567.969 119 567.969 119.469C567.969 120.062 568.312 120.609 569 121.109C569.062 121.953 569.109 122.5 569.141 122.75C569.359 125.75 569.594 127.781 569.844 128.844L569.375 129.312L568.578 129.125L567.781 129.875C568.156 130.375 568.422 130.703 568.578 130.859C569.141 131.516 569.406 131.953 569.375 132.172V132.219L569.234 133.719V133.859C569.234 134.172 569.344 134.922 569.562 136.109L568.859 136.484V137.562C567.953 137.875 566.766 138.391 565.297 139.109C565.109 139.234 564.5 139.375 563.469 139.531V139.25C563.062 139.5 562.75 139.625 562.531 139.625C562.312 139.625 561.984 139.469 561.547 139.156C561.703 138.719 561.828 138.141 561.922 137.422L562.109 136.344L562.344 134.984C562.812 133.547 563.047 132.531 563.047 131.938C563.047 131.625 563.031 130.734 563 129.266C563.688 128.766 564.031 128.266 564.031 127.766C564.031 127.266 563.906 126.547 563.656 125.609C563.344 124.391 563.188 123.562 563.188 123.125L563.234 121.625V113.562C563.266 112.5 563.422 111.922 563.703 111.828C564.547 111.547 565.125 111.297 565.438 111.078V110.422L565.016 110C564.703 110.094 564.422 110.141 564.172 110.141C563.828 110.141 563.609 110.078 563.516 109.953L561.922 107.797L559.625 107.422C558.938 107.234 558.562 107.141 558.5 107.141C557.719 107.141 556.531 108 554.938 109.719C554.781 109.5 554.703 109.281 554.703 109.062C554.703 108.844 555.266 107.953 556.391 106.391C557.109 105.453 557.797 104.984 558.453 104.984C558.797 104.984 559.594 105.094 560.844 105.312ZM620.703 105.125L622.203 104.188C622.672 104.75 623 105.109 623.188 105.266C623.25 105.328 623.578 105.484 624.172 105.734C624.484 105.891 625.828 107.203 628.203 109.672C628.953 110.453 629.469 111.188 629.75 111.875C630 112.469 630.266 113.188 630.547 114.031C630.734 114.469 630.953 115.031 631.203 115.719L630.875 116.047C630.531 115.984 630.062 115.844 629.469 115.625L627.688 116.281L626.094 116L624.688 116.375C622.75 115 621.734 114.312 621.641 114.312C621.453 114.312 620.719 114.953 619.438 116.234C617.438 115.859 616.375 115.672 616.25 115.672C615.75 115.672 615.156 115.719 614.469 115.812L614.234 115.625C613.734 115.688 612.375 115.719 610.156 115.719L608.422 115.906L606.266 116.094L604.062 116.469L602.094 116.422C600.281 116.984 599.047 117.312 598.391 117.406C598.234 118.469 598.078 119.203 597.922 119.609C597.734 120.078 597.359 120.594 596.797 121.156C597.797 121.844 598.328 122.328 598.391 122.609C598.703 124.609 599 125.953 599.281 126.641L600.125 127.109L599.891 128.844L601.344 129.219C601.656 130.5 602.062 131.359 602.562 131.797C603.031 132.203 603.812 132.484 604.906 132.641C605.062 133.609 605.312 134.188 605.656 134.375C605.906 134.562 606.469 134.688 607.344 134.75L608.141 135.969C608.484 135.906 608.781 135.875 609.031 135.875C609.219 135.875 610.156 136.266 611.844 137.047C612.219 137.234 612.625 137.328 613.062 137.328C613.469 137.328 614.266 137.141 615.453 136.766L618.453 136.438L620.75 135.781C621.844 135.719 622.578 135.625 622.953 135.5C623.484 135.281 624.453 134.734 625.859 133.859C627.234 133.016 628.031 132.438 628.25 132.125C628.812 131.469 629.344 130.719 629.844 129.875C630.094 129.5 630.531 129.312 631.156 129.312C631.438 129.312 631.844 129.516 632.375 129.922C632.156 131.047 631.953 131.781 631.766 132.125C630.453 134.344 629.625 135.812 629.281 136.531C628.875 136.344 628.531 136.25 628.25 136.25C628.062 136.25 627.547 136.562 626.703 137.188C626.141 137.562 625.438 137.781 624.594 137.844C622.656 138.375 621.312 138.688 620.562 138.781C619.281 138.906 618.469 139.016 618.125 139.109C617.156 139.422 616.656 139.578 616.625 139.578L613.859 139.156L612.219 139.438L611.422 139.484C610.672 139.578 610.094 139.625 609.688 139.625C609.281 139.625 608.141 139.516 606.266 139.297C605.672 139.234 605.375 139.203 605.375 139.203L604.391 138.594C602.047 137.875 600.75 137.453 600.5 137.328C600.344 137.234 599.812 136.766 598.906 135.922C598.844 135.859 598.297 135.516 597.266 134.891C596.391 134.359 595.922 133.953 595.859 133.672L595.016 132.172C594.891 131.922 594.359 131.328 593.422 130.391C593.734 129.891 593.891 129.516 593.891 129.266C593.891 129.172 593.484 128.297 592.672 126.641C592.453 126.203 592.344 124.875 592.344 122.656C592.344 121.969 592.562 120.844 593 119.281C593.375 118.062 593.641 117.359 593.797 117.172L595.391 115.297L596.422 113.094C597.484 112.094 598.703 110.969 600.078 109.719L603.5 107.609L606.969 105.219L608.234 104.984L611.797 103.859L614.094 103.672C615.938 102.984 616.953 102.641 617.141 102.641C618.891 102.641 620.078 103.469 620.703 105.125ZM615.266 112.156L616.062 113.141C616.688 113.016 617.109 112.938 617.328 112.906C618.172 112.781 619.016 112.562 619.859 112.25L622.531 112.484C622.562 112.484 622.641 112.328 622.766 112.016C622.797 111.828 622.812 111.672 622.812 111.547C622.812 111.266 622.625 110.922 622.25 110.516C622.188 110.453 622.031 110.266 621.781 109.953C621.031 108.953 620.562 108.484 620.375 108.547L618.828 107.797C618.641 107.703 618.344 107.344 617.938 106.719C617.031 106.594 615.484 106.531 613.297 106.531L612.359 106.484L610.766 107.422C610.703 107.484 609.844 107.703 608.188 108.078C606.875 108.547 605.719 109 604.719 109.438C604.5 109.594 603.891 110.125 602.891 111.031C602.703 111.188 602.344 111.469 601.812 111.875V112.156L601.906 112.25L605.328 113.609L606.359 114.641L608.188 112.438C608.344 112.312 608.516 112.25 608.703 112.25C608.797 112.25 609.562 112.453 611 112.859C611.031 112.859 611.062 112.859 611.094 112.859C611.5 112.859 612.391 112.703 613.766 112.391C614.078 112.297 614.578 112.219 615.266 112.156ZM670.109 105.125L671.609 104.188C672.078 104.75 672.406 105.109 672.594 105.266C672.656 105.328 672.984 105.484 673.578 105.734C673.891 105.891 675.234 107.203 677.609 109.672C678.359 110.453 678.875 111.188 679.156 111.875C679.406 112.469 679.672 113.188 679.953 114.031C680.141 114.469 680.359 115.031 680.609 115.719L680.281 116.047C679.938 115.984 679.469 115.844 678.875 115.625L677.094 116.281L675.5 116L674.094 116.375C672.156 115 671.141 114.312 671.047 114.312C670.859 114.312 670.125 114.953 668.844 116.234C666.844 115.859 665.781 115.672 665.656 115.672C665.156 115.672 664.562 115.719 663.875 115.812L663.641 115.625C663.141 115.688 661.781 115.719 659.562 115.719L657.828 115.906L655.672 116.094L653.469 116.469L651.5 116.422C649.688 116.984 648.453 117.312 647.797 117.406C647.641 118.469 647.484 119.203 647.328 119.609C647.141 120.078 646.766 120.594 646.203 121.156C647.203 121.844 647.734 122.328 647.797 122.609C648.109 124.609 648.406 125.953 648.688 126.641L649.531 127.109L649.297 128.844L650.75 129.219C651.062 130.5 651.469 131.359 651.969 131.797C652.438 132.203 653.219 132.484 654.312 132.641C654.469 133.609 654.719 134.188 655.062 134.375C655.312 134.562 655.875 134.688 656.75 134.75L657.547 135.969C657.891 135.906 658.188 135.875 658.438 135.875C658.625 135.875 659.562 136.266 661.25 137.047C661.625 137.234 662.031 137.328 662.469 137.328C662.875 137.328 663.672 137.141 664.859 136.766L667.859 136.438L670.156 135.781C671.25 135.719 671.984 135.625 672.359 135.5C672.891 135.281 673.859 134.734 675.266 133.859C676.641 133.016 677.438 132.438 677.656 132.125C678.219 131.469 678.75 130.719 679.25 129.875C679.5 129.5 679.938 129.312 680.562 129.312C680.844 129.312 681.25 129.516 681.781 129.922C681.562 131.047 681.359 131.781 681.172 132.125C679.859 134.344 679.031 135.812 678.688 136.531C678.281 136.344 677.938 136.25 677.656 136.25C677.469 136.25 676.953 136.562 676.109 137.188C675.547 137.562 674.844 137.781 674 137.844C672.062 138.375 670.719 138.688 669.969 138.781C668.688 138.906 667.875 139.016 667.531 139.109C666.562 139.422 666.062 139.578 666.031 139.578L663.266 139.156L661.625 139.438L660.828 139.484C660.078 139.578 659.5 139.625 659.094 139.625C658.688 139.625 657.547 139.516 655.672 139.297C655.078 139.234 654.781 139.203 654.781 139.203L653.797 138.594C651.453 137.875 650.156 137.453 649.906 137.328C649.75 137.234 649.219 136.766 648.312 135.922C648.25 135.859 647.703 135.516 646.672 134.891C645.797 134.359 645.328 133.953 645.266 133.672L644.422 132.172C644.297 131.922 643.766 131.328 642.828 130.391C643.141 129.891 643.297 129.516 643.297 129.266C643.297 129.172 642.891 128.297 642.078 126.641C641.859 126.203 641.75 124.875 641.75 122.656C641.75 121.969 641.969 120.844 642.406 119.281C642.781 118.062 643.047 117.359 643.203 117.172L644.797 115.297L645.828 113.094C646.891 112.094 648.109 110.969 649.484 109.719L652.906 107.609L656.375 105.219L657.641 104.984L661.203 103.859L663.5 103.672C665.344 102.984 666.359 102.641 666.547 102.641C668.297 102.641 669.484 103.469 670.109 105.125ZM664.672 112.156L665.469 113.141C666.094 113.016 666.516 112.938 666.734 112.906C667.578 112.781 668.422 112.562 669.266 112.25L671.938 112.484C671.969 112.484 672.047 112.328 672.172 112.016C672.203 111.828 672.219 111.672 672.219 111.547C672.219 111.266 672.031 110.922 671.656 110.516C671.594 110.453 671.438 110.266 671.188 109.953C670.438 108.953 669.969 108.484 669.781 108.547L668.234 107.797C668.047 107.703 667.75 107.344 667.344 106.719C666.438 106.594 664.891 106.531 662.703 106.531L661.766 106.484L660.172 107.422C660.109 107.484 659.25 107.703 657.594 108.078C656.281 108.547 655.125 109 654.125 109.438C653.906 109.594 653.297 110.125 652.297 111.031C652.109 111.188 651.75 111.469 651.219 111.875V112.156L651.312 112.25L654.734 113.609L655.766 114.641L657.594 112.438C657.75 112.312 657.922 112.25 658.109 112.25C658.203 112.25 658.969 112.453 660.406 112.859C660.438 112.859 660.469 112.859 660.5 112.859C660.906 112.859 661.797 112.703 663.172 112.391C663.484 112.297 663.984 112.219 664.672 112.156ZM736.531 122.047L735.312 122.938C734.094 122.594 733.125 122.422 732.406 122.422C731.562 122.422 730.547 122.484 729.359 122.609C729.016 121.891 728.547 121.344 727.953 120.969L727.062 122.141C726.406 122.234 725.625 122.406 724.719 122.656C724.344 122.75 724.016 122.797 723.734 122.797C723.672 122.797 723.578 122.781 723.453 122.75C722.266 122.5 721.672 122.375 721.672 122.375C721.641 122.375 721.594 122.422 721.531 122.516L720.641 121.578C720.141 121.797 719.719 121.906 719.375 121.906C719.25 121.906 718.859 121.75 718.203 121.438C718.047 121.375 717.766 121.266 717.359 121.109C714.953 120.266 713.75 118.891 713.75 116.984C713.75 115.328 714.391 113.688 715.672 112.062C716.016 111.594 716.891 110.766 718.297 109.578L719.234 108.688L721.438 107.375C723.688 106 725.344 105.094 726.406 104.656C728.844 103.656 730.797 103.156 732.266 103.156C732.516 103.156 733.922 103.484 736.484 104.141L738.922 103.719C740.453 103.812 741.344 103.922 741.594 104.047C742.219 104.359 742.531 104.672 742.531 104.984C742.531 105.297 742.375 105.609 742.062 105.922C741.969 105.984 741.203 106.453 739.766 107.328C738.266 108.234 737.422 108.688 737.234 108.688C735.203 108.688 733.719 108.547 732.781 108.266C732.469 107.609 732.141 107.078 731.797 106.672H731.516L730.625 107.609C730.094 107.641 729.703 107.656 729.453 107.656C729.172 107.656 728.906 107.641 728.656 107.609C728.312 107.578 728.062 107.562 727.906 107.562C727.844 107.562 727.438 107.656 726.688 107.844C726.438 107.656 725.969 107.562 725.281 107.562C724.656 108.031 723.625 108.656 722.188 109.438C721.438 109.844 720.781 110.453 720.219 111.266C719.688 112.078 719.422 112.844 719.422 113.562C719.422 113.906 719.719 114.344 720.312 114.875C720.406 114.969 720.953 115.219 721.953 115.625C722.547 115.906 723.156 116.25 723.781 116.656C723.75 116.906 723.734 117.109 723.734 117.266C723.734 117.922 724 118.25 724.531 118.25C725.031 118.25 725.594 117.844 726.219 117.031C726.938 117.125 727.547 117.172 728.047 117.172C728.234 117.172 729.125 117.031 730.719 116.75L732.219 116.891C733.594 116.703 734.344 116.609 734.469 116.609C734.688 116.609 735.484 116.828 736.859 117.266L738.547 117.078L740.234 118.25C742.047 119.094 743.281 119.891 743.938 120.641C744.438 121.266 744.719 121.766 744.781 122.141L745.109 123.688C745.547 125.562 745.766 126.641 745.766 126.922C745.766 127.109 745.703 127.656 745.578 128.562C745.422 130.562 744.844 131.562 743.844 131.562C743.531 131.562 743.172 131.516 742.766 131.422C742.391 132.984 742.078 133.875 741.828 134.094C740.422 135.719 739.516 136.812 739.109 137.375C737.516 137.594 736.203 138.078 735.172 138.828C734.703 139.203 734.422 139.406 734.328 139.438C734.234 139.469 733.844 139.516 733.156 139.578L729.359 140.609C728.109 140.391 727.422 140.281 727.297 140.281C727.109 140.281 726.172 140.531 724.484 141.031L723.359 140.891C721.859 140.797 720.734 140.672 719.984 140.516C718.359 140.109 717.5 139.812 717.406 139.625L715.906 138.641C714.062 137.516 712.922 136.703 712.484 136.203C711.547 135.109 711.078 134.047 711.078 133.016C711.078 132.797 711.422 132.422 712.109 131.891L713.375 130.719C714.562 129.844 715.25 129.406 715.438 129.406C715.562 129.406 715.672 129.453 715.766 129.547C716.484 130.234 716.844 130.984 716.844 131.797L716.656 133.297V133.344C716.625 133.625 716.703 133.844 716.891 134C717.016 134.125 717.578 134.469 718.578 135.031C718.797 135.156 719.078 135.359 719.422 135.641C720.203 136.328 720.609 136.672 720.641 136.672L722.375 137.375L723.969 138.219H725.75L726.875 138.453C728.031 138.109 729.062 137.922 729.969 137.891C730.844 137.859 731.484 137.734 731.891 137.516L733.719 136.625C734.719 136.281 735.297 136.047 735.453 135.922C736.047 135.453 736.828 134.422 737.797 132.828C738.797 131.172 739.297 129.281 739.297 127.156C739.297 126.688 739.156 126.25 738.875 125.844C737.656 124 736.875 122.734 736.531 122.047ZM755.328 64.9062C755.609 64.375 756.25 63.8594 757.25 63.3594L760.344 61.7656C761.188 61.3594 762.016 61.1562 762.828 61.1562C763.109 61.1562 763.484 61.2969 763.953 61.5781C762.453 62.2031 761.609 62.625 761.422 62.8438L759.641 64.7188L763.25 68.1406C763.406 68.2969 763.484 68.6094 763.484 69.0781C763.484 69.3281 763.312 69.8438 762.969 70.625C762.688 71.2188 762.547 71.5156 762.547 71.5156L761.75 71.8906C761.656 71.9531 761.531 72.1562 761.375 72.5C761.219 72.8438 761.141 73.1094 761.141 73.2969C761.141 73.6094 761.203 73.9844 761.328 74.4219C761.672 74.4219 762.062 74.2812 762.5 74C762.812 73.8438 763.125 73.7344 763.438 73.6719L762.969 81.875C762.969 82.125 763 82.5312 763.062 83.0938C763.094 83.5312 763.109 83.8906 763.109 84.1719C763.109 84.8281 762.75 85.5312 762.031 86.2812C762.031 86.9688 762.109 87.3906 762.266 87.5469L763.109 88.5312C763.297 88.75 763.391 89.125 763.391 89.6562C763.391 89.9062 763.219 90.6875 762.875 92L763.156 93.8281C763.312 95.5469 763.391 96.4375 763.391 96.5C763.391 96.5938 763.219 97.125 762.875 98.0938L763.203 100.062L763.109 101C763.297 101.969 763.391 102.469 763.391 102.5C763.391 102.656 763.359 102.844 763.297 103.062C762.922 104.75 762.734 106.391 762.734 107.984C762.734 108.641 762.891 109.328 763.203 110.047C764.891 109.109 766.906 107.5 769.25 105.219L771.219 105.594C771.938 105.125 772.734 104.797 773.609 104.609C775.047 104.328 775.922 104.188 776.234 104.188C776.578 104.188 776.984 104.422 777.453 104.891L777.734 105.922H778.859C779.078 105.703 779.328 105.328 779.609 104.797C779.734 104.516 779.922 104.391 780.172 104.422L782.984 104.609C785.766 104.797 787.281 104.969 787.531 105.125C787.562 105.156 788.078 105.734 789.078 106.859C789.422 107.297 790.094 107.734 791.094 108.172L790.391 109.578C790.797 109.859 791.344 110 792.031 110C792.688 110.844 793.016 111.688 793.016 112.531C793.016 113.531 792.969 114.609 792.875 115.766C792.781 116.828 792.562 117.547 792.219 117.922C792.031 118.109 791.844 118.297 791.656 118.484L792.359 120.312L791.422 121.438L791.281 121.859L792.547 123.172C792.391 123.609 792.312 123.891 792.312 124.016L792.359 125.188L792.5 128L792.547 128.516C791.984 129.453 791.703 130.016 791.703 130.203C791.703 130.391 791.906 131.469 792.312 133.438L792.219 137.469C792.219 137.5 792.234 137.688 792.266 138.031C791.547 138.5 790.672 138.797 789.641 138.922C789.109 139.328 788.562 139.641 788 139.859C787.312 140.109 786.719 140.359 786.219 140.609L784.578 139.156C784.797 138.375 785.125 137.516 785.562 136.578C786.094 135.391 786.359 134.188 786.359 132.969C786.359 132.688 786.141 131.953 785.703 130.766L785.844 130.156L786.125 128.422C786.5 127.422 786.797 126.109 787.016 124.484L786.219 124.016C786.219 122.953 786.391 121.109 786.734 118.484C786.766 118.266 786.781 118.078 786.781 117.922C786.781 117.828 786.781 117.719 786.781 117.594C786.562 116.125 786.453 115.375 786.453 115.344C786.453 115.312 786.516 115.172 786.641 114.922C786.766 114.641 786.828 114.422 786.828 114.266V114.219C786.828 114.062 786.609 113.547 786.172 112.672C785.922 112.109 785.547 111.672 785.047 111.359C784.891 111.234 784.359 111.062 783.453 110.844C782.203 110.219 781.469 109.875 781.25 109.812C781.094 109.781 780.438 109.766 779.281 109.766C777.531 109.516 776.5 109.391 776.188 109.391C775.938 109.391 775.625 109.406 775.25 109.438C773.906 109.531 773.141 109.578 772.953 109.578C771.797 109.609 770.531 109.781 769.156 110.094L768.547 110.234L765.828 111.641L764.188 112.203C761.906 114.234 760.766 115.375 760.766 115.625C760.766 116.406 761.797 117.016 763.859 117.453C763.734 118.109 763.656 118.531 763.625 118.719C763.438 119.656 763.281 121.375 763.156 123.875C762.5 123.875 762.047 124 761.797 124.25V124.531C762.609 125.469 763.109 126.266 763.297 126.922C763.547 127.766 763.703 129.109 763.766 130.953L764 132.453L763.578 134.516L763.812 135.781V136.578L763.859 137.422C763.859 137.641 763.688 137.953 763.344 138.359C763.312 138.422 762.328 138.766 760.391 139.391C759.891 139.547 759.141 140.094 758.141 141.031L757.062 140.094C757.094 139.156 757.312 137.984 757.719 136.578V135.219C757.719 135.156 757.938 134.719 758.375 133.906C758.594 133.531 758.703 133.156 758.703 132.781C758.703 132.562 758.625 132.312 758.469 132.031C758.094 131.375 757.906 130.984 757.906 130.859V130.812L758.047 128.422V129.453V126.219C758.047 126.062 758.062 125.812 758.094 125.469C758.125 125.156 758.141 124.969 758.141 124.906L758.047 123.172L758.281 119.656L758.141 116.938C758.203 116.625 758.266 116.328 758.328 116.047C758.359 115.922 758.766 115.516 759.547 114.828C759.734 114.672 759.828 114.422 759.828 114.078C759.828 113.641 759.781 113.141 759.688 112.578L758.562 112.906C758.188 111.438 758 109.75 758 107.844C758 105.469 758.078 102.812 758.234 99.875L759.828 99.6875C759.453 99 759.188 98.2656 759.031 97.4844L757.953 96.7344C758.078 95.8281 758.141 95.1562 758.141 94.7188C758.141 94.25 758.094 93.7344 758 93.1719C757.688 90.9844 757.531 89.4375 757.531 88.5312C757.531 87.7812 757.828 87.1719 758.422 86.7031C759.891 85.6094 760.625 85 760.625 84.875C760.625 84.875 760.625 84.8594 760.625 84.8281C759.969 84.1719 758.859 83.7969 757.297 83.7031C757.422 83.2344 757.516 82.6562 757.578 81.9688C757.953 80.875 758.141 80.25 758.141 80.0938C758.141 79.625 757.812 79.1406 757.156 78.6406C757.188 77.8281 757.203 77.2031 757.203 76.7656C757.203 76.1406 757.188 75.5781 757.156 75.0781C757.094 74.0156 757.062 73.3125 757.062 72.9688C757.062 72.7812 757.156 72.1094 757.344 70.9531C756.594 68.5781 756.219 67.2344 756.219 66.9219C756.219 66.6094 756.234 66.25 756.266 65.8438L755.328 64.9062ZM803.75 126.688C803.75 124.625 803.875 123.125 804.125 122.188C804.375 121.375 804.812 120.141 805.438 118.484C806.719 116.109 807.453 114.766 807.641 114.453C807.828 114.172 808.547 113.625 809.797 112.812C809.828 112.781 810.062 112.312 810.5 111.406C810.781 110.906 811.016 110.609 811.203 110.516C811.547 110.234 812.75 109.594 814.812 108.594C815.469 108.281 816.219 107.688 817.062 106.812C817.188 106.688 819.062 105.953 822.688 104.609C824.562 103.891 827.297 103.531 830.891 103.531C831.609 103.531 832.547 103.656 833.703 103.906L833.891 104.891C834.328 105.078 834.703 105.297 835.016 105.547C835.484 105.391 835.859 104.984 836.141 104.328C837.859 104.703 839.359 105.328 840.641 106.203C841.609 106.797 842.156 107.172 842.281 107.328C842.344 107.422 842.656 107.969 843.219 108.969C843.844 109.938 844.906 110.438 846.406 110.469C847.156 111.719 847.625 112.641 847.812 113.234C848.031 113.828 848.234 114.828 848.422 116.234C848.609 117.672 848.75 118.797 848.844 119.609H848.094V120.172L847.156 121.25C847.281 121.781 847.719 122.281 848.469 122.75C848.375 124.125 848.281 125.062 848.188 125.562C848.125 125.781 847.891 126.328 847.484 127.203C846.328 129.922 845.516 131.656 845.047 132.406C843.391 134.406 841.875 135.625 840.5 136.062L837.969 137.328L835.578 138.453C834.328 139.141 833.594 139.516 833.375 139.578C833.156 139.609 831.641 139.703 828.828 139.859L825.547 140.562H822.219L820.719 140.75C817.969 140.281 816.25 140.031 815.562 140C815.125 139.5 814.797 139.203 814.578 139.109C814.516 139.078 813.906 138.969 812.75 138.781C812.125 138.656 810.891 137.984 809.047 136.766C808.766 136.609 808.203 136.297 807.359 135.828C807.172 135.266 807.047 134.875 806.984 134.656C806.859 134.312 806.734 134.078 806.609 133.953C806.578 133.953 806.25 133.734 805.625 133.297C805.594 133.297 805.484 133.156 805.297 132.875C804.609 131.781 804.266 130.688 804.266 129.594C804.266 129.062 804.594 128.562 805.25 128.094C804.969 127.594 804.484 127.188 803.797 126.875L803.75 126.688ZM808.906 125.75V126.219L809.328 126.641C809.641 126.359 809.953 126.203 810.266 126.172C810.516 127.234 810.734 128.047 810.922 128.609C811.078 128.953 811.891 130.312 813.359 132.688C813.391 132.75 813.406 132.844 813.406 132.969C813.406 133.25 813.25 133.703 812.938 134.328C813.062 134.766 813.484 135 814.203 135.031C814.516 134.719 814.781 134.562 815 134.562C815.188 134.562 816.562 135.219 819.125 136.531C820.219 137.062 821.328 137.328 822.453 137.328H825.219L826.625 137.656C827.219 137.812 827.734 137.891 828.172 137.891C828.891 137.891 829.703 137.781 830.609 137.562C831.203 137.406 832.062 137.219 833.188 137C833.5 136.906 834.562 136.234 836.375 134.984C837.594 134.578 838.281 134.297 838.438 134.141C838.656 133.891 839.25 132.969 840.219 131.375L841.391 129.031C842.172 128.281 842.625 127.812 842.75 127.625C842.875 127.406 842.938 127.109 842.938 126.734C842.438 125.984 842.203 125.484 842.234 125.234V125.188L842.422 124.25C842.484 122.812 842.672 121.641 842.984 120.734C842.734 120.141 842.438 119.203 842.094 117.922L841.344 115.484C841.281 115.172 841.234 114.531 841.203 113.562L841.016 113.375H839.891C839.547 112.719 838.844 111.734 837.781 110.422C837.156 109.641 836.797 109.219 836.703 109.156C836.641 109.062 836.344 108.906 835.812 108.688C835.375 108.5 834.594 108.188 833.469 107.75C833.156 106.656 832.656 106.109 831.969 106.109C831.781 106.109 831.297 106.266 830.516 106.578C829.547 106.328 829 106.203 828.875 106.203C827.25 106.203 826.188 106.234 825.688 106.297C825.156 106.328 824.344 106.688 823.25 107.375L822.266 106.672C821.797 107.297 821.438 107.672 821.188 107.797L819.172 108.828L818.844 109.203L813.219 113.938L812.797 114.266C812.734 115.141 812.641 115.688 812.516 115.906L811.578 117.547C811.266 118.422 810.875 119.156 810.406 119.75C810.438 120 810.453 120.219 810.453 120.406C810.453 121.125 809.906 121.703 808.812 122.141C808.812 122.234 808.938 122.594 809.188 123.219C810.031 123.812 810.453 124.203 810.453 124.391C810.453 124.734 809.938 125.188 808.906 125.75ZM859.391 109.766C859.516 109.266 859.609 108.969 859.672 108.875C859.734 108.781 860.016 108.547 860.516 108.172C860.828 107.891 861.609 107.234 862.859 106.203C864.547 105.234 865.5 104.75 865.719 104.75C866.219 104.75 866.797 105.172 867.453 106.016C867.234 106.484 867.125 106.844 867.125 107.094C867.125 107.312 867.234 107.672 867.453 108.172C868.047 107.891 869.422 107.156 871.578 105.969L872.797 105.641C873.828 105.297 874.5 105.125 874.812 105.125C875.844 105.125 876.734 105.359 877.484 105.828C877.953 104.891 879.406 104.359 881.844 104.234L887.75 104.375C888.312 104.406 888.641 104.406 888.734 104.375C889.109 104.344 889.359 104.328 889.484 104.328C890.047 104.328 890.641 104.688 891.266 105.406C891.922 105.5 892.672 105.75 893.516 106.156C895.297 106.812 896.531 107.531 897.219 108.312C897.312 108.406 897.453 108.75 897.641 109.344C897.734 109.625 897.922 109.969 898.203 110.375L900.125 110C901.188 111.156 901.922 112.234 902.328 113.234C902.859 114.859 903.312 116.875 903.688 119.281V119.328C903.688 119.609 903.688 119.875 903.688 120.125C903.656 120.438 903.641 120.609 903.641 120.641C903.641 121.141 903.719 121.766 903.875 122.516C903.875 122.578 903.875 122.609 903.875 122.609C903.875 122.766 903.625 123.438 903.125 124.625C902.812 125.344 902.344 126.109 901.719 126.922L900.359 129.266C899.734 129.766 899.234 130.344 898.859 131L897.031 130.578C896.625 132.266 895.906 133.344 894.875 133.812C894.781 133.844 894.375 133.875 893.656 133.906C893.156 133.906 892.75 133.969 892.438 134.094C892.562 135.75 890.391 137.328 885.922 138.828C884.734 139.297 883.906 139.547 883.438 139.578H880.203C880.078 139.578 879.891 139.641 879.641 139.766C878.922 140.109 878.469 140.281 878.281 140.281C878.188 140.281 877.828 140.156 877.203 139.906C875.984 139.719 874.734 139.547 873.453 139.391L873.594 138.547C873.156 137.141 872.859 136.438 872.703 136.438C872.703 136.438 872.547 136.75 872.234 137.375C871.859 138.281 871.609 138.828 871.484 139.016C871.359 139.172 871.109 139.25 870.734 139.25H870.406H869.938C869.75 139.25 869.516 139.266 869.234 139.297C869.047 139.297 868.906 139.297 868.812 139.297C868.531 139.297 868.156 139.172 867.688 138.922C867.406 139.609 867.266 140.156 867.266 140.562C867.266 141.062 867.312 142.203 867.406 143.984C867.469 144.391 867.5 144.719 867.5 144.969C867.5 145.406 867.391 145.688 867.172 145.812L865.719 146.609C865.594 146.672 865.484 146.984 865.391 147.547C865.297 148.109 865.172 148.453 865.016 148.578L864.312 149.094C865.875 150 866.672 150.469 866.703 150.5C866.766 150.562 866.859 150.766 866.984 151.109C867.047 151.328 867.188 152.016 867.406 153.172C867.531 155.203 867.625 156.578 867.688 157.297L866.562 157.578C866.5 157.953 866.469 158.281 866.469 158.562C866.469 158.688 866.641 159.391 866.984 160.672C867.016 160.797 867.031 160.969 867.031 161.188C867.031 161.438 867.016 161.719 866.984 162.031L867.828 161.891C867.891 163.328 867.953 164.266 868.016 164.703C868.047 165.203 868.078 166.328 868.109 168.078L868.391 169.25C868.391 169.406 868.312 169.688 868.156 170.094C867.594 170.156 867.156 170.281 866.844 170.469L868.297 171.312C868.266 171.625 868.25 171.906 868.25 172.156C868.25 172.438 868.312 172.875 868.438 173.469C868.594 174.125 868.688 174.859 868.719 175.672C867.969 176.172 867.5 176.547 867.312 176.797C867.188 176.922 866.953 177.344 866.609 178.062L865.531 178.484C864.406 179.172 863.312 179.562 862.25 179.656H862.203L860.984 179.328C861.984 178.922 862.547 178.609 862.672 178.391C862.828 178.203 862.938 177.562 863 176.469L864.828 173.469L861.266 169.484C861.266 169.484 861.312 169.438 861.406 169.344C861.594 169.125 861.859 168.781 862.203 168.312L861.828 165.688C862.047 165.375 862.203 165.172 862.297 165.078C862.797 164.547 863.047 164.172 863.047 163.953C863.047 163.734 862.859 163.5 862.484 163.25C862.016 162.938 861.734 162.734 861.641 162.641C863.484 161.859 864.406 161.312 864.406 161C864.406 160.844 863.609 160.5 862.016 159.969L861.875 159.875C863.406 158.969 864.172 158.375 864.172 158.094C864.172 157.906 863.578 156.844 862.391 154.906C861.922 154.188 861.688 153.469 861.688 152.75C861.688 152.594 861.891 150.625 862.297 146.844L863 146.422L862.859 143.469C861.891 143.219 861.406 142.625 861.406 141.688C861.406 141.469 861.484 140.203 861.641 137.891L861.781 135.594V128.328C861.781 128.109 861.953 127.656 862.297 126.969L862.203 125.094L862.25 124.531C862.25 124.188 861.922 123.859 861.266 123.547C861.234 122.766 861.219 122.219 861.219 121.906C861.219 121.438 861.219 121.031 861.219 120.688C861.25 119.875 861.266 119.344 861.266 119.094C861.266 119.031 861.266 118.953 861.266 118.859C861.203 117.547 861.172 116.875 861.172 116.844C861.172 116.812 861.203 116.656 861.266 116.375C861.359 116.094 861.406 115.875 861.406 115.719V115.625C861.094 113.188 860.875 111.672 860.75 111.078C860.656 110.766 860.203 110.328 859.391 109.766ZM866.328 116.094L866.703 116.469H867.219C867.25 117.219 867.266 117.875 867.266 118.438C867.266 118.812 867.25 119.141 867.219 119.422C867.156 120.016 867.125 120.391 867.125 120.547C867.125 120.578 867.188 121.094 867.312 122.094C867.312 122.125 867.312 122.141 867.312 122.141C867.312 122.422 867.047 123.078 866.516 124.109C866.953 124.984 867.188 125.547 867.219 125.797L867.266 127.953L867.453 130.531C867.453 130.562 867.422 130.75 867.359 131.094C867.328 131.375 867.281 131.781 867.219 132.312C867.781 132.656 868.172 132.875 868.391 132.969C870.078 133.781 871.047 134.312 871.297 134.562C871.391 134.594 871.547 134.781 871.766 135.125C872.203 134.781 872.516 134.609 872.703 134.609C872.891 134.609 873.234 134.703 873.734 134.891C874.078 135.016 874.625 135.094 875.375 135.125C876.312 135.125 876.844 135.156 876.969 135.219L880.062 136.25C880.188 136.281 880.344 136.297 880.531 136.297C880.562 136.297 881.672 136.141 883.859 135.828L885.641 137.797L887.094 137.094C888.188 136.531 888.906 136.125 889.25 135.875C889.469 135.688 889.906 135.266 890.562 134.609L892.297 133.391L893.797 131.75C895.141 130.625 895.922 129.953 896.141 129.734C896.484 129.328 897 128.062 897.688 125.938C898.125 124.656 898.344 123.734 898.344 123.172C898.344 122.828 898.312 122.469 898.25 122.094C898.156 121.438 898.109 120.953 898.109 120.641C898.109 120.422 898.219 120.078 898.438 119.609C897.688 119.109 897.188 118.609 896.938 118.109C896.719 117.734 896.5 117.031 896.281 116C895.562 115.438 894.953 114.797 894.453 114.078C894.109 113.641 893.938 113.359 893.938 113.234C893.938 112.984 894 112.688 894.125 112.344C893.688 111.719 893.203 111.406 892.672 111.406C892.453 111.406 891.859 111.484 890.891 111.641C890.203 111.203 889.75 110.891 889.531 110.703C888.406 109.828 887.688 109.375 887.375 109.344C887.312 109.312 886.688 109.297 885.5 109.297C884.844 108.922 884.516 108.734 884.516 108.734C884.109 108.547 883.281 108.453 882.031 108.453C878.875 108.453 876.719 108.547 875.562 108.734C875.312 108.797 874.125 109.141 872 109.766L870.734 109.953C870.453 110.016 869.984 110.266 869.328 110.703C868.453 110.828 867.906 111.078 867.688 111.453C867.469 111.828 867.359 112.328 867.359 112.953C867.359 113.203 867.375 113.562 867.406 114.031C865.938 114.219 864.688 114.594 863.656 115.156L866.281 115.859L866.328 116.094Z" fill="#E7D7C1"/>
</g>
<g filter="url(#filter1_d_145_269)">
<path d="M561.698 209.272H570.786V214.008C570.957 216.568 571.938 218.915 573.73 221.048C575.607 223.096 578.039 224.76 581.026 226.04C584.013 227.235 587.213 227.832 590.626 227.832C594.21 227.832 597.495 226.893 600.482 225.016C603.554 223.139 606.029 220.664 607.906 217.592C609.869 214.435 611.021 211.064 611.362 207.48H593.826C593.741 207.48 593.655 207.523 593.57 207.608V215.032H585.378V191.096H593.57V198.392C593.57 198.392 593.57 198.435 593.57 198.52C593.655 198.52 593.698 198.52 593.698 198.52H611.362C611.021 194.851 609.869 191.523 607.906 188.536C606.029 185.464 603.554 183.032 600.482 181.24C597.41 179.448 594.125 178.552 590.626 178.552C587.469 178.552 584.482 179.107 581.666 180.216C578.85 181.325 576.546 182.819 574.754 184.696C572.962 186.488 572.023 188.408 571.938 190.456V194.808H562.85V168.056H571.426V176.888C573.389 174.925 575.735 173.347 578.466 172.152C582.135 170.531 586.146 169.72 590.498 169.72C596.301 169.72 601.549 171.171 606.242 174.072C611.021 176.973 614.775 180.984 617.506 186.104C620.237 191.139 621.602 196.771 621.602 203C621.602 209.229 620.237 214.904 617.506 220.024C614.775 225.059 611.021 229.027 606.242 231.928C601.549 234.829 596.301 236.28 590.498 236.28C588.023 236.28 585.677 236.024 583.458 235.512C581.239 235 579.149 234.275 577.186 233.336C574.285 231.8 571.938 230.008 570.146 227.96V236.408H561.698V209.272ZM643.387 225.656H657.851V180.344H639.419C639.334 180.344 639.291 180.387 639.291 180.472C639.291 180.472 639.248 180.472 639.163 180.472C639.163 180.472 639.163 180.515 639.163 180.6V195.832H629.819V165.24H638.779V171H686.011V165.24H694.971V195.832H685.627V180.6C685.627 180.515 685.584 180.472 685.499 180.472C685.499 180.387 685.456 180.344 685.371 180.344H667.067V225.656H681.531V235H643.387V225.656ZM737.299 236.28C730.814 236.28 724.968 234.829 719.763 231.928C714.643 229.027 710.59 225.059 707.603 220.024C704.616 214.904 703.123 209.229 703.123 203C703.123 196.771 704.616 191.139 707.603 186.104C710.59 180.984 714.643 176.973 719.763 174.072C724.968 171.171 730.814 169.72 737.299 169.72C743.699 169.72 749.502 171.171 754.707 174.072C759.912 176.973 764.008 180.984 766.995 186.104C769.982 191.139 771.475 196.771 771.475 203C771.475 209.229 769.982 214.904 766.995 220.024C764.008 225.059 759.912 229.027 754.707 231.928C749.502 234.829 743.699 236.28 737.299 236.28ZM737.299 226.936C741.907 226.936 746.046 225.912 749.715 223.864C753.47 221.731 756.371 218.872 758.419 215.288C760.552 211.619 761.619 207.523 761.619 203C761.619 198.477 760.552 194.424 758.419 190.84C756.371 187.171 753.47 184.312 749.715 182.264C746.046 180.131 741.907 179.064 737.299 179.064C732.691 179.064 728.51 180.131 724.755 182.264C721.086 184.312 718.184 187.171 716.051 190.84C714.003 194.424 712.979 198.477 712.979 203C712.979 207.523 714.003 211.619 716.051 215.288C718.184 218.872 721.086 221.731 724.755 223.864C728.51 225.912 732.691 226.936 737.299 226.936Z" fill="#E7D7C1"/>
</g>
<g filter="url(#filter2_d_145_269)">
<path d="M45.4 205.4C43.5333 206.2 42 205.6 40.8 203.6C40.1333 202.667 39.6667 201.4 39.4 199.8C39.2667 198.6 39.0667 197.4 38.8 196.2C38.5333 195 38.2667 193.733 38 192.4C37.8667 191.867 37.6667 191.333 37.4 190.8C37.2667 190.267 37.0667 189.733 36.8 189.2C36.4 188.4 36 187.6 35.6 186.8C35.2 186 34.7333 185.267 34.2 184.6C33.6667 183.533 33.3333 182.8 33.2 182.4L32.2 180.2C31.4 178.333 31 176.4 31 174.4C30.8667 173.467 30.8 172.533 30.8 171.6C30.9333 170.667 31.0667 169.733 31.2 168.8C31.6 166.4 31.5333 164.2 31 162.2L29.2 153.2C29.0667 152.4 28.9333 151.6 28.8 150.8C28.6667 149.867 28.5333 148.933 28.4 148L27.8 145.2C27.6667 144 27.5333 142.8 27.4 141.6C27.2667 140.4 27.1333 139.267 27 138.2C26.8667 137.8 26.8 137.4 26.8 137C26.8 136.6 26.8 136.2 26.8 135.8C26.8 134.333 26.3333 133.067 25.4 132C24.8667 131.333 24.3333 130.667 23.8 130C23.4 129.2 23.0667 128.467 22.8 127.8C22.2667 127 21.7333 126.267 21.2 125.6C20.8 124.8 20.4 124 20 123.2C19.6 122.4 18.9333 121.933 18 121.8C17.2 121.667 16.4667 121.333 15.8 120.8C14.8667 120 14 119.133 13.2 118.2C12.9333 117.667 12.6667 117.267 12.4 117C12 116.467 11.8667 115.933 12 115.4C12.2667 115 12.2667 114.6 12 114.2C11.6 113.533 11.4667 112.933 11.6 112.4C11.7333 111.867 11.8667 111.333 12 110.8C12 110.267 12.1333 109.8 12.4 109.4C12.6667 109 12.9333 108.6 13.2 108.2C13.7333 107.4 14.3333 106.733 15 106.2C15.8 105.533 16.6 104.933 17.4 104.4C17.9333 104.133 18.3333 103.867 18.6 103.6C19.2667 103.333 19.4667 102.933 19.2 102.4V101.8C18.9333 100.333 18.6667 98.9333 18.4 97.6C18.1333 96.2667 17.8 94.9333 17.4 93.6C17.2667 92.9333 17.0667 92.2667 16.8 91.6C16.6667 90.9333 16.4667 90.2667 16.2 89.6C16.0667 89.4667 16 89.2 16 88.8C16 88.1333 15.9333 87.4667 15.8 86.8C15.6667 86.1333 15.5333 85.5333 15.4 85C15 81.8 14.4 78.6 13.6 75.4C13.4667 74.4667 13.1333 73.5333 12.6 72.6C12.0667 71.4 11.7333 70.3333 11.6 69.4C11.2 67.9333 10.8 66.5333 10.4 65.2C10 63.7333 9.66667 62.3333 9.4 61C9 59.6667 8.66667 58.3333 8.4 57C8.26667 55.6667 8.13333 54.3333 8 53C7.86667 49.8 9 47.2 11.4 45.2L12 44.6C13.0667 43.6667 14.1333 43.0667 15.2 42.8C16.4 42.4 17.6667 42.2 19 42.2C20.2 42.3333 21.2667 42.2667 22.2 42C23.2667 41.6 24.2667 41.1333 25.2 40.6C25.4667 40.4667 25.8667 40.4 26.4 40.4H27C27.4 40.4 27.7333 40.4667 28 40.6C28.4 40.8667 28.8667 40.7333 29.4 40.2C29.5333 40.0667 29.7333 40.1333 30 40.4C30.2667 40.8 30.6 41 31 41C31.2667 41.1333 31.5333 41.2 31.8 41.2C32.2 41.2 32.6 41.3333 33 41.6C33.2667 41.7333 33.5333 41.9333 33.8 42.2C34.2 42.4667 34.4667 42.8667 34.6 43.4L35.2 44C35.6 44.1333 35.9333 44.4667 36.2 45C36.3333 45.5333 36.8 45.8 37.6 45.8C38 45.8 38.6 45.6667 39.4 45.4C40.8667 45.1333 42.2667 44.8667 43.6 44.6C45.0667 44.3333 46.4667 44.1333 47.8 44C48.2 43.8667 48.6667 43.8 49.2 43.8C51.8667 43.6667 54.5333 43.4 57.2 43C59.8667 42.6 62.4667 42.1333 65 41.6L66 41.2C68.6667 40.8 71.2 40 73.6 38.8C74.5333 38.2667 75.5333 37.8 76.6 37.4C77.6667 37 78.6667 36.6 79.6 36.2L86.4 33.8C87.3333 33.5333 87.9333 33.2667 88.2 33C89 32.3333 89.7333 31.8667 90.4 31.6C92.1333 30.5333 94.0667 29.8667 96.2 29.6C97.4 29.6 98.6 29.8 99.8 30.2C101.667 31 103.4 32.2667 105 34C105.4 34.6667 105.533 35.4 105.4 36.2C105 37 105 37.8667 105.4 38.8C105.533 39.6 105.533 40.2667 105.4 40.8C105.267 41.3333 105.2 41.8667 105.2 42.4C105.2 42.9333 105.133 43.4667 105 44C105 44.6667 104.8 45.2 104.4 45.6C103.467 46.9333 102.533 47.9333 101.6 48.6C101.467 48.7333 101.333 48.8667 101.2 49C101.2 49.1333 101.067 49.3333 100.8 49.6C100.667 49.7333 100.533 49.8667 100.4 50C100.4 50.1333 100.267 50.3333 100 50.6C99.3333 51.1333 98.7333 51.7333 98.2 52.4C97.8 53.0667 97.3333 53.7333 96.8 54.4C96.2667 55.3333 95.6 56.2667 94.8 57.2C94.1333 58 93.3333 58.7333 92.4 59.4L90.8 61.2C90 62.2667 89.5333 63.2667 89.4 64.2C89.1333 65.4 88.8667 66.6 88.6 67.8C88.4667 68.8667 88.4 70 88.4 71.2L87.8 75.4C87.8 75.9333 87.6667 76.4667 87.4 77C86.8667 78.3333 85.8 79 84.2 79C84.0667 79.1333 83.8667 79.2 83.6 79.2C83.4667 79.0667 83.3333 79 83.2 79C82 78.3333 81.2 77.4667 80.8 76.4C80.2667 74.6667 79.8667 72.7333 79.6 70.6C79.6 69.9333 79.5333 69.2667 79.4 68.6C79.4 67.8 79.3333 67.0667 79.2 66.4L78.6 65C78.3333 64.0667 77.8 63.8667 77 64.4C76.8667 64.4 76.6667 64.4667 76.4 64.6C76.2667 64.7333 76.0667 64.8667 75.8 65C75.2667 65.2667 74.7333 65.6 74.2 66C73.8 66.2667 73.4 66.6 73 67C71.8 67.6667 70.3333 68.3333 68.6 69C66.2 69.8 64 71 62 72.6C61.7333 72.7333 61.4 72.9333 61 73.2C60.7333 73.4667 60.4 73.7333 60 74C59.6 74.2667 59.2 74.5333 58.8 74.8C58.4 75.0667 57.9333 75.3333 57.4 75.6L56 76.4C55.6 76.6667 55.1333 77.2 54.6 78C54.4667 78.6667 54.2667 79.4 54 80.2C53.8667 80.8667 53.8 81.6 53.8 82.4C53.8 83.6 53.7333 84.8 53.6 86C53.6 87.2 53.6667 88.4 53.8 89.6C53.8 90.2667 53.8 91 53.8 91.8C53.8 92.4667 53.6667 93.1333 53.4 93.8C53.1333 94.7333 53.4667 95.0667 54.4 94.8C55.0667 94.8 55.6 94.7333 56 94.6C57.4667 94.3333 58.9333 94.1333 60.4 94C62 93.7333 63.4667 93.4667 64.8 93.2L69.2 92.6C69.8667 92.4667 70.4 92.3333 70.8 92.2C71.3333 92.0667 71.8667 91.8667 72.4 91.6C73.2 91.0667 74 90.7333 74.8 90.6C75.6 90.4667 76.4 90.3333 77.2 90.2C78.9333 89.8 80.6667 90.1333 82.4 91.2L85 93C85.5333 93.5333 85.8 94.0667 85.8 94.6C86.0667 95.5333 86.4 96 86.8 96C87.2 95.8667 87.4667 95.8667 87.6 96C88 96.5333 88.3333 97.1333 88.6 97.8C89 98.3333 89.2667 98.9333 89.4 99.6C89.4 100.133 89.2 100.467 88.8 100.6C88.2667 100.6 87.8667 100.8 87.6 101.2C87.3333 101.6 87.0667 102 86.8 102.4C86.6667 102.533 86.6 102.667 86.6 102.8C86.7333 102.933 86.8 103.067 86.8 103.2C87.0667 103.6 87.0667 104.067 86.8 104.6C86.6667 104.867 86.5333 105.2 86.4 105.6C86.2667 105.867 86.1333 106.133 86 106.4C85.4667 107.6 84.6667 108.6 83.6 109.4C83.0667 109.933 82.6 110.333 82.2 110.6C81.1333 111.267 80.1333 112.467 79.2 114.2C79.0667 114.467 78.9333 114.8 78.8 115.2C78.6667 115.467 78.4667 115.8 78.2 116.2C77.8 116.733 77.2 117.133 76.4 117.4C75.0667 117.667 74 117.6 73.2 117.2L72 116.6C71.2 116.333 70.5333 116.4 70 116.8C69.8667 116.933 69.5333 117.133 69 117.4C67.8 117.933 66.4667 118 65 117.6C64.3333 117.333 63.6 117 62.8 116.6C62.1333 116.2 61.4667 115.867 60.8 115.6C60.5333 115.467 60.2667 115.267 60 115C59.4667 114.6 58.8667 114.533 58.2 114.8C57.4 114.933 56.6 115.133 55.8 115.4C55 115.533 54.2 115.733 53.4 116C52.2 116.133 50.8667 116.533 49.4 117.2C49 117.2 48.6 117.4 48.2 117.8C47.5333 118.333 47.2667 118.933 47.4 119.6V120C47.8 121.2 48.0667 122.4 48.2 123.6C48.4667 124.8 48.6667 126 48.8 127.2L50 135.6C50 135.733 50 135.867 50 136C50.1333 136 50.2 136 50.2 136C50.2 137.467 50.2667 138.933 50.4 140.4C50.5333 141.867 50.6 143.333 50.6 144.8C50.6 146.533 50.6 148.2 50.6 149.8C50.7333 151.4 50.8 153 50.8 154.6V157C51.0667 157.533 51.4667 157.8 52 157.8L54.6 157.2C55.2667 157.067 55.8667 156.933 56.4 156.8C57.0667 156.667 57.6667 156.533 58.2 156.4L61.8 155.8C62.6 155.8 63.2 155.733 63.6 155.6C65.3333 155.333 67.0667 155 68.8 154.6C70.5333 154.2 72.2667 153.867 74 153.6C74.8 153.467 75.6 153.333 76.4 153.2C77.3333 153.067 78.2667 152.933 79.2 152.8C80.6667 152.667 82.0667 152.533 83.4 152.4C84.8667 152.133 86.2667 151.933 87.6 151.8C88.2667 151.667 88.8667 151.6 89.4 151.6C90.0667 151.467 90.6667 151.4 91.2 151.4C92 151.133 92.6 150.867 93 150.6C93.2667 150.333 93.5333 150.133 93.8 150C94.2 149.867 94.4667 149.733 94.6 149.6C95.8 148.533 97.1333 148.133 98.6 148.4C99 148.4 99.3333 148.333 99.6 148.2C99.8667 148.2 100.2 148.2 100.6 148.2C101 148.2 101.333 148.267 101.6 148.4C102.267 148.667 102.867 148.933 103.4 149.2C103.933 149.333 104.467 149.6 105 150C105.133 150.133 105.267 150.2 105.4 150.2C106.467 150.867 107.533 150.933 108.6 150.4C109 150.133 109.467 149.933 110 149.8C110.533 149.533 111.067 149.333 111.6 149.2C112.933 148.8 114.267 148.8 115.6 149.2C116 149.333 116.4 149.467 116.8 149.6C117.333 149.733 117.733 149.933 118 150.2C118.8 150.6 119.533 151.267 120.2 152.2C121.4 153.933 122.2 155.733 122.6 157.6C122.867 158 122.867 158.4 122.6 158.8C122.467 159.2 122.333 159.6 122.2 160C122.067 160.267 121.933 160.6 121.8 161C121.667 161.267 121.533 161.6 121.4 162C121.267 162.267 121.133 162.533 121 162.8C121 163.333 120.733 163.733 120.2 164C119.667 164.133 119.267 164.533 119 165.2C118.733 165.733 118.4 165.867 118 165.6C117.467 165.6 117.133 165.667 117 165.8C116.333 166.333 115.6 166.733 114.8 167C114 167.267 113.2 167.533 112.4 167.8C110.933 168.067 109.467 168.467 108 169C106.533 169.4 105.067 169.8 103.6 170.2C102.8 170.467 102.2 170.6 101.8 170.6C101 170.733 100.2 170.933 99.4 171.2C98.7333 171.333 98.0667 171.533 97.4 171.8C97.2667 171.933 97.0667 172 96.8 172C96.6667 172 96.4667 172.067 96.2 172.2C95.2667 172.333 94.2667 172.533 93.2 172.8C92.2667 173.067 91.3333 173.4 90.4 173.8C90 174.067 89.4 174.2 88.6 174.2C87.5333 174.2 86.4 174.4 85.2 174.8C83.8667 175.067 82.5333 175.333 81.2 175.6C79.8667 175.733 78.4667 175.933 77 176.2L72.8 176.8C71.0667 177.2 69.5333 177.667 68.2 178.2C67.9333 178.333 67.6 178.467 67.2 178.6C66.8 178.733 66.4667 178.867 66.2 179C63.4 179.533 60.8 180.533 58.4 182L56.8 182.6C55.7333 182.733 54.6667 183.067 53.6 183.6C52.6667 184.133 51.6667 184.667 50.6 185.2C49.8 185.733 49.2667 186.133 49 186.4C48.7333 186.667 48.4667 187.067 48.2 187.6C47.5333 189.2 47.2 190.6 47.2 191.8C47.3333 192.733 47.4 193.6 47.4 194.4C47.4 195.333 47.4667 196.333 47.6 197.4C47.8667 199 47.8 200.467 47.4 201.8C47.4 202.333 47.2667 203 47 203.8C46.4667 204.6 45.9333 205.133 45.4 205.4ZM45.4 96.6C45.9333 96.3333 46.2 95.9333 46.2 95.4C46.0667 95.1333 46 94.8667 46 94.6C46 94.2 45.9333 93.8667 45.8 93.6C45.1333 91.8667 44.8 90.3333 44.8 89C44.8 88.7333 44.7333 88.5333 44.6 88.4C44.6 88.2667 44.6 88.1333 44.6 88C44.3333 87.7333 44.2 87.6 44.2 87.6V88C44.0667 88.6667 43.9333 89.4 43.8 90.2C43.8 91 43.8 91.8 43.8 92.6V95.8C44.0667 96.2 44.3333 96.4 44.6 96.4C44.7333 96.5333 45 96.6 45.4 96.6ZM260.859 272.25L257.609 269.25C257.276 268.917 257.109 268.583 257.109 268.25L256.359 265.75C256.359 264.417 256.109 263 255.609 261.5C255.443 261.167 255.359 260.75 255.359 260.25C255.359 259.75 255.276 259.333 255.109 259C255.109 257.667 255.026 256.333 254.859 255C254.693 253.833 254.443 252.667 254.109 251.5V250.5C253.943 248.167 253.693 245.75 253.359 243.25C253.026 240.917 252.859 238.583 252.859 236.25V232.75C252.859 232.25 252.859 231.75 252.859 231.25C253.026 230.75 253.026 230.167 252.859 229.5C252.859 228.5 252.776 227.333 252.609 226C252.609 224.833 252.609 223.667 252.609 222.5C252.609 221.667 252.609 220.75 252.609 219.75C252.609 218.75 252.526 217.833 252.359 217C252.193 215.333 252.026 213.667 251.859 212C251.693 210.333 251.526 208.667 251.359 207C251.193 205.333 251.026 203.667 250.859 202C250.859 200.333 250.859 198.667 250.859 197C250.526 195.667 250.276 194.417 250.109 193.25C249.943 192.083 249.693 190.917 249.359 189.75C249.026 188.25 248.443 187.083 247.609 186.25C246.943 185.417 246.276 184.583 245.609 183.75C245.109 183.083 244.693 182.333 244.359 181.5C244.026 180.833 243.693 180.333 243.359 180C242.526 179.167 241.693 178.25 240.859 177.25C240.193 176.083 239.443 175 238.609 174C237.776 172.5 236.859 171.167 235.859 170C235.359 169.167 234.776 168.417 234.109 167.75C233.609 166.917 233.193 166.167 232.859 165.5C232.526 164.667 232.026 164 231.359 163.5C230.859 162.833 230.359 162.25 229.859 161.75L220.359 151.25C218.859 149.583 217.443 147.917 216.109 146.25C215.776 145.417 215.359 144.75 214.859 144.25C214.359 143.75 213.776 143.167 213.109 142.5L207.109 136.25C206.609 135.583 206.026 135.083 205.359 134.75C204.859 134.25 204.276 133.833 203.609 133.5C202.276 132.833 200.943 131.833 199.609 130.5C199.609 130.333 199.443 130.083 199.109 129.75C198.109 129.083 197.109 128.333 196.109 127.5C195.276 126.667 194.443 125.833 193.609 125C192.609 124 191.859 123.333 191.359 123C190.026 121.667 188.609 120.417 187.109 119.25C185.776 118.083 184.443 116.833 183.109 115.5C182.443 114.833 181.776 114.25 181.109 113.75C180.609 113.083 180.109 112.417 179.609 111.75L178.109 110.25C178.109 110.25 178.026 110.25 177.859 110.25C177.859 110.25 177.859 110.333 177.859 110.5L177.609 110.75V111C178.443 114.333 179.026 118 179.359 122C179.359 122.5 179.443 122.833 179.609 123C180.109 124.667 180.276 126.333 180.109 128C180.109 129.5 179.943 131.083 179.609 132.75C179.276 134.083 179.526 135.167 180.359 136C180.693 136.333 180.693 136.667 180.359 137C180.359 137.833 180.359 138.25 180.359 138.25C180.526 139.083 180.609 139.917 180.609 140.75C180.609 141.583 180.609 142.417 180.609 143.25C180.609 144.417 180.693 145.25 180.859 145.75C181.359 148.25 181.526 150.583 181.359 152.75C181.193 153.417 181.109 154.167 181.109 155C181.109 155.833 181.026 156.667 180.859 157.5C180.693 158 180.609 158.5 180.609 159C180.776 159.333 180.859 159.667 180.859 160C181.026 160.667 181.109 161.333 181.109 162C181.276 162.5 181.276 163.083 181.109 163.75C181.109 165.25 180.776 166.583 180.109 167.75C179.109 169.417 177.776 170.417 176.109 170.75C175.609 170.75 175.276 170.833 175.109 171C174.276 171.333 173.859 171.75 173.859 172.25C173.859 173.083 173.776 173.917 173.609 174.75C173.609 175.417 173.609 176.167 173.609 177V183.5C173.776 185 173.443 186.5 172.609 188C172.109 188.833 171.443 189.417 170.609 189.75C169.776 190.083 168.943 190.167 168.109 190C165.776 189.167 164.276 187.667 163.609 185.5L162.859 182.5C162.693 181.333 162.359 180.167 161.859 179C161.526 178 160.943 177 160.109 176C159.776 175.333 159.443 174.667 159.109 174C158.776 173.333 158.443 172.667 158.109 172C157.443 170.5 156.859 169 156.359 167.5C156.026 165.833 155.693 164.167 155.359 162.5C155.193 161.5 155.109 160.583 155.109 159.75C155.109 158.75 155.109 157.75 155.109 156.75C155.109 156.083 155.026 155.417 154.859 154.75C154.859 154.083 154.859 153.417 154.859 152.75C154.693 151.583 154.609 150.417 154.609 149.25C154.609 148.083 154.609 146.917 154.609 145.75C154.609 144.917 154.609 144 154.609 143C154.609 142 154.443 141.083 154.109 140.25V139.25C154.109 137.583 154.026 136 153.859 134.5C153.693 133 153.526 131.417 153.359 129.75C153.359 129.417 153.276 129.167 153.109 129C152.943 128 152.776 127 152.609 126C152.443 124.833 152.193 123.75 151.859 122.75C151.526 121.417 151.193 120.083 150.859 118.75C150.693 117.417 150.443 116.083 150.109 114.75C149.943 113.583 149.776 112.5 149.609 111.5C149.443 110.333 149.193 109.167 148.859 108C148.693 107.333 148.526 106.75 148.359 106.25C148.359 105.583 148.359 104.917 148.359 104.25C148.193 103.25 148.026 102.333 147.859 101.5C147.859 100.5 147.859 99.5833 147.859 98.75C147.693 97.4167 147.526 96.0833 147.359 94.75C147.193 93.25 146.943 91.8333 146.609 90.5C146.443 89.6667 146.276 88.8333 146.109 88C146.109 87 146.109 86.0833 146.109 85.25C145.943 83.0833 145.693 81 145.359 79C145.193 77 145.109 74.9167 145.109 72.75C145.109 71.9167 145.026 71.1667 144.859 70.5C144.859 69.6667 144.859 68.9167 144.859 68.25C144.693 66.75 144.443 65.25 144.109 63.75C143.943 62.0833 143.776 60.5 143.609 59L142.109 49C141.943 47.1667 141.776 45.25 141.609 43.25C141.443 41.25 141.359 39.3333 141.359 37.5C141.359 36.3333 141.359 35.1667 141.359 34C141.359 32.8333 141.276 31.6667 141.109 30.5C140.776 28.3333 140.859 26.25 141.359 24.25C141.859 21.9167 142.859 19.9167 144.359 18.25C144.859 17.5833 145.359 17 145.859 16.5C146.359 16 146.859 15.5 147.359 15C148.359 14.1667 149.443 13.5833 150.609 13.25C151.943 12.9167 153.193 12.6667 154.359 12.5C155.193 12.5 156.026 12.5833 156.859 12.75C157.693 12.75 158.443 12.8333 159.109 13C160.109 13.3333 161.109 13.5833 162.109 13.75C163.276 13.75 164.443 13.75 165.609 13.75C167.776 13.75 169.859 13.75 171.859 13.75C174.026 13.75 176.193 13.8333 178.359 14C182.193 14 186.109 14.25 190.109 14.75C192.443 15.0833 194.609 15.5833 196.609 16.25C198.776 16.75 200.943 17.4167 203.109 18.25C206.776 19.5833 210.193 21.0833 213.359 22.75C214.859 23.4167 216.276 24.25 217.609 25.25C218.943 26.0833 220.193 27.0833 221.359 28.25C221.859 28.75 222.359 29.25 222.859 29.75C223.359 30.25 223.776 30.8333 224.109 31.5C224.609 32 225.109 32.5 225.609 33C226.109 33.5 226.443 34.1667 226.609 35C226.943 35.6667 227.109 36 227.109 36C228.276 37.6667 229.109 39.5 229.609 41.5C230.276 43.5 230.776 45.5 231.109 47.5C231.443 49.1667 231.443 50.8333 231.109 52.5C230.943 54 230.776 55.5833 230.609 57.25C230.609 58.4167 230.526 59.5 230.359 60.5C230.193 61.5 229.943 62.5 229.609 63.5C229.443 65.1667 228.943 66.75 228.109 68.25C227.443 69.75 226.693 71.1667 225.859 72.5C225.859 72.6667 225.776 72.8333 225.609 73C225.443 73 225.276 73.1667 225.109 73.5C223.943 74.8333 222.609 76.1667 221.109 77.5C219.776 78.8333 218.193 80 216.359 81C215.693 81.3333 215.026 81.75 214.359 82.25C213.859 82.75 213.193 83.1667 212.359 83.5C212.026 83.8333 212.026 84.1667 212.359 84.5C213.026 85.1667 213.526 85.5833 213.859 85.75C215.026 86.75 216.193 87.75 217.359 88.75C218.693 89.75 219.943 90.75 221.109 91.75C222.443 92.5833 223.609 93.5833 224.609 94.75C225.609 95.75 226.693 96.75 227.859 97.75C229.026 98.9167 230.193 100.083 231.359 101.25C232.526 102.417 233.693 103.583 234.859 104.75C235.193 104.917 235.526 105.167 235.859 105.5C236.193 105.833 236.526 106.167 236.859 106.5C237.693 107.167 238.443 107.833 239.109 108.5C239.776 109.167 240.443 109.917 241.109 110.75C241.443 111.417 241.859 112 242.359 112.5C242.859 112.833 243.359 113.25 243.859 113.75C244.526 114.25 245.109 114.75 245.609 115.25C246.109 115.75 246.693 116.333 247.359 117C248.193 118 249.109 119.083 250.109 120.25C251.109 121.25 252.109 122.25 253.109 123.25L254.609 125C254.943 125.333 255.276 125.667 255.609 126C255.943 126.333 256.193 126.667 256.359 127C257.859 128.667 259.359 130.333 260.859 132C262.526 133.667 264.193 135.417 265.859 137.25L267.359 138.75C268.359 139.417 269.276 140.333 270.109 141.5C271.109 142.5 272.026 143.417 272.859 144.25C273.526 144.75 274.026 145.5 274.359 146.5C274.526 147 274.693 147.5 274.859 148C275.026 148.333 275.193 148.75 275.359 149.25C275.859 150.583 276.026 151.833 275.859 153C275.693 153.333 275.609 153.917 275.609 154.75C275.609 156.083 275.276 157.333 274.609 158.5C274.109 159.667 273.443 160.75 272.609 161.75L270.359 163.75C268.359 165.75 267.109 168.333 266.609 171.5C266.443 173.167 266.276 174.833 266.109 176.5C266.109 178.167 266.109 179.917 266.109 181.75C266.109 183.583 266.109 185.417 266.109 187.25C266.109 189.083 266.193 190.917 266.359 192.75V196C266.526 196.5 266.609 197.417 266.609 198.75V233C266.609 234.167 266.526 235.333 266.359 236.5C266.359 237.833 266.359 239.167 266.359 240.5C266.193 241.167 266.109 241.833 266.109 242.5C266.109 243.167 266.109 243.833 266.109 244.5V249.5C266.109 250.333 266.193 251 266.359 251.5C266.693 254.167 266.776 256.833 266.609 259.5C266.609 262.167 266.693 264.917 266.859 267.75C266.859 269.25 266.193 270.667 264.859 272C263.526 273.333 262.193 273.417 260.859 272.25ZM173.609 72.75C173.776 72.5833 173.943 72.5 174.109 72.5C174.276 72.5 174.443 72.4167 174.609 72.25C177.276 70.4167 179.943 69.5833 182.609 69.75C183.609 69.75 184.359 69.8333 184.859 70C186.193 70.3333 187.359 70.0833 188.359 69.25C189.859 68.4167 191.359 67.75 192.859 67.25C194.359 66.5833 195.776 65.8333 197.109 65C197.276 65 197.359 65 197.359 65C197.359 64.8333 197.443 64.75 197.609 64.75C199.776 64.0833 201.776 62.9167 203.609 61.25C205.276 60.0833 206.193 59.3333 206.359 59C206.693 58.5 207.026 57.1667 207.359 55V54C207.359 53 207.276 52.0833 207.109 51.25C206.943 50.4167 206.859 49.6667 206.859 49C206.359 47.1667 205.359 45.75 203.859 44.75C202.359 43.75 200.776 43 199.109 42.5C197.276 41.6667 195.359 41.0833 193.359 40.75C191.359 40.25 189.443 39.8333 187.609 39.5C187.443 39.5 187.276 39.5 187.109 39.5C187.109 39.3333 187.026 39.25 186.859 39.25C185.193 38.9167 183.693 39.25 182.359 40.25C182.359 40.25 182.276 40.25 182.109 40.25C182.109 40.25 182.026 40.3333 181.859 40.5C180.026 41.5 178.359 41.75 176.859 41.25H175.609C173.109 41.25 171.359 42.3333 170.359 44.5C170.026 45.5 169.859 46.25 169.859 46.75C169.859 47.5833 169.859 48.5 169.859 49.5C169.859 50.5 169.943 51.4167 170.109 52.25C170.443 53.25 170.609 54 170.609 54.5C170.609 55.6667 170.693 56.75 170.859 57.75C171.026 58.75 171.193 59.75 171.359 60.75C171.526 60.9167 171.609 61.25 171.609 61.75C171.443 62.4167 171.359 63 171.359 63.5C171.526 64 171.609 64.5833 171.609 65.25C171.776 65.9167 171.859 66.5 171.859 67C172.026 67.5 172.026 68 171.859 68.5C171.859 69.8333 172.109 71.1667 172.609 72.5C172.609 72.6667 172.693 72.8333 172.859 73C173.193 73 173.443 72.9167 173.609 72.75ZM300.889 196C300.755 196 300.289 195.867 299.489 195.6C299.089 195.467 298.622 195 298.089 194.2C297.955 193.8 297.822 193.4 297.689 193C297.555 192.6 297.489 192.2 297.489 191.8C297.089 189.8 296.889 187.8 296.889 185.8V172C296.889 170.8 296.755 169.6 296.489 168.4C296.222 167.2 295.955 166 295.689 164.8C295.689 164.533 295.555 164.133 295.289 163.6C295.155 163.2 294.955 162.8 294.689 162.4C294.422 161.867 294.155 161.4 293.889 161C293.355 160.067 292.955 159.067 292.689 158C292.422 156.933 292.222 155.933 292.089 155C291.955 153.533 291.955 152.133 292.089 150.8C292.355 150 292.555 149.267 292.689 148.6C292.822 147.8 293.022 147.067 293.289 146.4C293.689 145.333 294.022 144.267 294.289 143.2C294.555 142 294.889 140.8 295.289 139.6L298.289 129.8C299.222 127 300.422 124.133 301.889 121.2C303.355 118.4 304.755 115.267 306.089 111.8C306.355 111 306.689 110.133 307.089 109.2C307.622 107.733 308.155 106.333 308.689 105C309.355 103.533 309.955 102.133 310.489 100.8L313.489 92.4C313.755 91.8667 313.955 91.3333 314.089 90.8C314.222 90.2667 314.355 89.7333 314.489 89.2C315.555 86.5333 316.622 84 317.689 81.6C318.489 80 319.022 78.2667 319.289 76.4C319.555 74.5333 319.555 72.6667 319.289 70.8C319.155 70 319.022 69.2 318.889 68.4C318.889 67.4667 318.889 66.6 318.889 65.8C318.889 65.4 318.755 65.0667 318.489 64.8C318.355 64.4 318.355 64 318.489 63.6C318.622 63.3333 318.755 63.0667 318.889 62.8C319.155 62.5333 319.355 62.2667 319.489 62C319.889 60.5333 320.489 59.2667 321.289 58.2C322.222 57 323.222 55.9333 324.289 55C324.822 54.4667 325.555 54.0667 326.489 53.8C327.022 53.5333 327.489 53.2667 327.889 53C328.422 52.7333 328.889 52.4 329.289 52C329.955 51.4667 330.689 51.1333 331.489 51C332.555 50.8667 333.689 50.4667 334.889 49.8C335.955 49.1333 337.155 48.9333 338.489 49.2H340.289C341.222 49.2 342.222 49.5333 343.289 50.2C343.555 50.3333 343.822 50.5333 344.089 50.8C344.489 50.9333 344.889 51.1333 345.289 51.4C346.355 52.2 346.889 53.2 346.889 54.4C346.889 55.3333 346.955 56.2 347.089 57C347.355 57.8 347.555 58.6667 347.689 59.6C347.955 60.4 347.955 61.2667 347.689 62.2C347.555 62.4667 347.489 62.8 347.489 63.2C347.489 63.4667 347.422 63.7333 347.289 64C347.289 64.5333 347.222 65.0667 347.089 65.6C347.089 66.1333 347.022 66.6667 346.889 67.2C346.489 68.1333 346.622 69.0667 347.289 70C348.355 71.7333 349.289 73.5333 350.089 75.4C351.022 77.2667 351.955 79.1333 352.889 81L356.489 87.4C357.555 89.1333 358.622 91.2 359.689 93.6C359.955 94 360.155 94.4 360.289 94.8C360.555 95.2 360.822 95.6 361.089 96C361.489 96.6667 361.822 97.4 362.089 98.2C362.489 99 362.889 99.8 363.289 100.6C364.355 102.6 365.222 104.667 365.889 106.8C366.689 108.8 367.489 110.933 368.289 113.2C368.289 113.333 368.289 113.467 368.289 113.6C368.422 113.6 368.489 113.667 368.489 113.8C368.622 114.733 369.289 115.2 370.489 115.2C370.889 115.067 371.289 115 371.689 115C372.222 115 372.689 115 373.089 115C374.555 115 375.822 115.267 376.889 115.8C377.555 115.933 378.222 116.333 378.889 117C379.955 118.067 380.689 118.933 381.089 119.6C381.489 120.267 381.755 121.267 381.889 122.6C382.422 125.133 381.889 127.333 380.289 129.2L379.089 130.2C378.822 130.467 378.489 130.733 378.089 131C377.689 131.133 377.355 131.333 377.089 131.6C376.422 132.133 376.022 132.533 375.889 132.8C375.889 133.067 376.089 133.667 376.489 134.6L379.489 141.8C380.689 144.467 381.889 147.133 383.089 149.8C384.422 152.467 385.755 155.133 387.089 157.8C387.622 158.733 388.022 159.667 388.289 160.6C388.689 161.533 388.955 162.533 389.089 163.6C389.222 164.4 389.222 165.2 389.089 166C389.089 166.8 389.022 167.6 388.889 168.4C388.889 168.533 388.755 169 388.489 169.8C388.089 170.333 387.689 170.867 387.289 171.4C387.022 171.933 386.689 172.467 386.289 173C385.222 174.467 384.355 176.133 383.689 178C383.422 179.2 382.555 180.133 381.089 180.8C380.289 181.2 379.422 181.2 378.489 180.8C377.289 180.4 376.489 179.6 376.089 178.4L375.689 177.4C375.289 176.067 374.689 174.8 373.889 173.6C373.355 172.667 372.822 171.733 372.289 170.8C371.889 169.733 371.422 168.733 370.889 167.8C370.755 167.533 370.689 167.333 370.689 167.2C370.689 166.933 370.622 166.733 370.489 166.6C370.355 165.8 370.089 165.067 369.689 164.4C369.422 163.6 369.089 162.867 368.689 162.2C367.889 160.2 367.022 158.267 366.089 156.4C365.289 154.4 364.422 152.4 363.489 150.4L360.489 144C360.355 143.6 360.222 143.2 360.089 142.8C359.955 142.267 359.755 141.733 359.489 141.2L357.089 135.8C357.089 135.533 356.955 135.133 356.689 134.6C356.022 133.533 355.155 132.933 354.089 132.8C353.155 132.8 352.289 132.733 351.489 132.6C350.689 132.467 349.889 132.4 349.089 132.4C346.955 132.4 344.822 132.6 342.689 133C340.555 133.4 338.555 134.133 336.689 135.2C334.155 136.667 331.555 137.6 328.889 138C328.355 138 327.822 138.067 327.289 138.2C326.755 138.333 326.222 138.533 325.689 138.8C324.889 139.333 324.422 139.933 324.289 140.6C324.022 141.4 323.889 142 323.889 142.4L323.289 145.2C323.155 146.133 322.622 147.067 321.689 148C321.022 148.667 320.089 149 318.889 149C317.155 148.733 316.022 147.867 315.489 146.4C315.355 146 315.222 145.6 315.089 145.2C314.955 144.8 314.822 144.333 314.689 143.8C314.155 144.6 314.089 145.267 314.489 145.8C314.755 146.333 314.622 146.8 314.089 147.2C313.822 147.467 313.755 147.667 313.889 147.8C314.155 148.333 314.089 148.8 313.689 149.2C313.289 149.6 313.155 150.067 313.289 150.6C313.422 150.867 313.422 151.2 313.289 151.6C312.622 152.533 312.155 153.667 311.889 155C312.022 155.533 311.689 155.933 310.889 156.2C310.622 156.2 310.489 156.333 310.489 156.6C310.222 157 309.955 157.6 309.689 158.4C309.555 159.067 309.355 159.8 309.089 160.6C308.955 161.267 308.755 161.933 308.489 162.6L307.289 167.6V168.4C307.289 169.6 307.155 170.8 306.889 172C306.755 173.067 306.689 174.2 306.689 175.4L306.089 182C305.955 182.933 305.822 183.867 305.689 184.8C305.689 185.867 305.689 186.933 305.689 188C305.555 188.8 305.422 189.533 305.289 190.2C305.289 191 305.155 191.8 304.889 192.6C304.622 193.8 304.155 194.667 303.489 195.2C302.955 196 302.089 196.267 300.889 196ZM326.889 115H327.089C328.422 114.733 329.689 114.533 330.889 114.4C332.089 114.267 333.289 114.133 334.489 114C335.289 113.867 336.089 113.8 336.889 113.8C337.689 113.667 338.489 113.6 339.289 113.6H343.489C343.755 113.6 344.022 113.6 344.289 113.6C344.555 113.467 344.755 113.4 344.889 113.4C345.155 113.4 345.289 113.133 345.289 112.6C344.889 112.067 344.555 111.533 344.289 111C344.022 110.467 343.755 109.933 343.489 109.4C342.689 107.533 341.622 105.933 340.289 104.6C340.155 104.333 340.022 104.133 339.889 104C339.755 103.733 339.622 103.467 339.489 103.2C339.355 102.933 339.155 102.667 338.889 102.4C338.755 102 338.555 101.667 338.289 101.4C337.622 100.867 336.955 101 336.289 101.8L335.689 103.4C335.555 104.467 335.355 105.6 335.089 106.8C334.822 107.867 334.555 108.933 334.289 110C334.289 110.267 334.155 110.667 333.889 111.2C333.622 112 332.955 112.6 331.889 113C330.955 113.4 329.955 113.267 328.889 112.6L327.689 111.8C327.689 111.8 327.555 111.8 327.289 111.8C327.022 112.333 326.889 112.733 326.889 113C326.889 113.267 326.889 113.533 326.889 113.8C327.022 114.067 326.955 114.333 326.689 114.6C326.422 114.867 326.489 115 326.889 115Z" fill="#E7D7C1"/>
</g>
<defs>
<filter id="filter0_d_145_269" x="426.078" y="61.1562" width="497.797" height="138.5" filterUnits="userSpaceOnUse" color-interpolation-filters="sRGB">
<feFlood flood-opacity="0" result="BackgroundImageFix"/>
<feColorMatrix in="SourceAlpha" type="matrix" values="0 0 0 0 0 0 0 0 0 0 0 0 0 0 0 0 0 0 127 0" result="hardAlpha"/>
<feOffset dx="20" dy="20"/>
<feComposite in2="hardAlpha" operator="out"/>
<feColorMatrix type="matrix" values="0 0 0 0 0 0 0 0 0 0 0 0 0 0 0 0 0 0 0.1 0"/>
<feBlend mode="normal" in2="BackgroundImageFix" result="effect1_dropShadow_145_269"/>
<feBlend mode="normal" in="SourceGraphic" in2="effect1_dropShadow_145_269" result="shape"/>
</filter>
<filter id="filter1_d_145_269" x="561.698" y="165.24" width="229.777" height="91.168" filterUnits="userSpaceOnUse" color-interpolation-filters="sRGB">
<feFlood flood-opacity="0" result="BackgroundImageFix"/>
<feColorMatrix in="SourceAlpha" type="matrix" values="0 0 0 0 0 0 0 0 0 0 0 0 0 0 0 0 0 0 127 0" result="hardAlpha"/>
<feOffset dx="20" dy="20"/>
<feComposite in2="hardAlpha" operator="out"/>
<feColorMatrix type="matrix" values="0 0 0 0 0 0 0 0 0 0 0 0 0 0 0 0 0 0 0.1 0"/>
<feBlend mode="normal" in2="BackgroundImageFix" result="effect1_dropShadow_145_269"/>
<feBlend mode="normal" in="SourceGraphic" in2="effect1_dropShadow_145_269" result="shape"/>
</filter>
<filter id="filter2_d_145_269" x="7.79999" y="12.5" width="401.489" height="281.5" filterUnits="userSpaceOnUse" color-interpolation-filters="sRGB">
<feFlood flood-opacity="0" result="BackgroundImageFix"/>
<feColorMatrix in="SourceAlpha" type="matrix" values="0 0 0 0 0 0 0 0 0 0 0 0 0 0 0 0 0 0 127 0" result="hardAlpha"/>
<feOffset dx="20" dy="20"/>
<feComposite in2="hardAlpha" operator="out"/>
<feColorMatrix type="matrix" values="0 0 0 0 0 0 0 0 0 0 0 0 0 0 0 0 0 0 0.1 0"/>
<feBlend mode="normal" in2="BackgroundImageFix" result="effect1_dropShadow_145_269"/>
<feBlend mode="normal" in="SourceGraphic" in2="effect1_dropShadow_145_269" result="shape"/>
</filter>
</defs>
</svg>
