<svg width="1920" height="489" viewBox="0 0 1920 489" fill="none" xmlns="http://www.w3.org/2000/svg">
<path fill-rule="evenodd" clip-rule="evenodd" d="M1937.15 489.004L1856.29 453.771C1775.44 419.146 1613.73 348.681 1452.03 354.755C1290.32 360.83 1128.61 442.229 966.907 448.304C805.2 453.771 643.493 383.913 481.787 348.681C320.08 314.056 158.373 314.056 77.5199 314.056H-3.3334V208.966H77.5199C158.373 208.966 320.08 208.966 481.787 208.966C643.493 208.966 805.2 208.966 966.907 208.966C1128.61 208.966 1290.32 208.966 1452.03 208.966C1613.73 208.966 1775.44 208.966 1856.29 208.966H1937.15V489.004Z" fill="#E7D7C1"/>
<path fill-rule="evenodd" clip-rule="evenodd" d="M1936.64 0L1883.28 21.8685C1828.3 43.737 1721.57 87.4739 1613.23 91.1187C1504.88 94.7634 1398.16 58.316 1289.81 58.316C1181.47 58.316 1074.75 94.7634 966.402 116.632C858.058 138.5 751.332 145.79 642.988 142.145C534.645 138.5 427.918 123.921 319.575 105.698C211.232 87.4739 104.505 65.6055 49.5249 54.6712L-3.83834 43.737V196.816H49.5249C104.505 196.816 211.232 196.816 319.575 196.816C427.918 196.816 534.645 196.816 642.988 196.816C751.332 196.816 858.058 196.816 966.402 196.816C1074.75 196.816 1181.47 196.816 1289.81 196.816C1398.16 196.816 1504.88 196.816 1613.23 196.816C1721.57 196.816 1828.3 196.816 1883.28 196.816H1936.64V0Z" fill="#E7D7C1"/>
<path fill-rule="evenodd" clip-rule="evenodd" d="M1936.64 142.748L1856.85 133.535C1773.87 124.323 1614.29 105.899 1451.52 118.182C1288.75 130.465 1129.17 174.479 966.402 174.479C803.631 174.479 644.052 130.465 481.282 108.969C318.511 87.4739 158.932 87.4739 75.9511 87.4739H-3.83835V217.47H75.9511C158.932 217.47 318.511 217.47 481.282 217.47C644.052 217.47 803.631 217.47 966.402 217.47C1129.17 217.47 1288.75 217.47 1451.52 217.47C1614.29 217.47 1773.87 217.47 1856.85 217.47H1936.64V142.748Z" fill="#735751"/>
<path fill-rule="evenodd" clip-rule="evenodd" d="M1936.64 278.823L1855.79 284.898C1774.93 290.365 1613.23 261.814 1451.52 278.823C1289.81 296.44 1168.53 341.391 1006.83 341.391C845.122 329.85 642.988 290.365 481.282 296.44C319.575 302.514 157.868 360.83 77.015 389.988L-3.83829 419.146V208.966H77.015C157.868 208.966 319.575 208.966 481.282 208.966C642.988 208.966 804.695 208.966 966.402 208.966C1128.11 208.966 1289.81 208.966 1451.52 208.966C1613.23 208.966 1774.93 208.966 1855.79 208.966H1936.64V278.823Z" fill="#735751"/>
<path d="M2018 222.937C1923.33 202.486 1714.29 186.49 1589.98 186.49C1465.67 186.49 1228.16 246.021 1015.92 246.021C803.684 246.021 498.762 186.49 309.468 186.49C120.174 186.49 -90.7559 246.021 -256 280.949" stroke="#A78A7F" stroke-width="30" stroke-linecap="round"/>
</svg>
