<svg width="1920" height="480" viewBox="0 0 1920 480" fill="none" xmlns="http://www.w3.org/2000/svg">
<path fill-rule="evenodd" clip-rule="evenodd" d="M-15.1465 -7.33137e-06L65.7068 34.5839C146.56 68.5715 308.267 137.739 469.973 131.777C631.68 125.814 793.387 45.9131 955.093 39.9503C1116.8 34.5839 1278.51 103.155 1440.21 137.739C1601.92 171.727 1763.63 171.727 1844.48 171.727H1925.33V274.882H1844.48C1763.63 274.882 1601.92 274.882 1440.21 274.882C1278.51 274.882 1116.8 274.882 955.093 274.882C793.387 274.882 631.68 274.882 469.973 274.882C308.267 274.882 146.56 274.882 65.7068 274.882H-15.1465L-15.1465 -7.33137e-06Z" fill="#E7D7C1"/>
<path fill-rule="evenodd" clip-rule="evenodd" d="M-14.6416 480L38.7216 458.535C93.7019 437.069 200.428 394.137 308.772 390.559C417.115 386.982 523.842 422.758 632.185 422.758C740.529 422.758 847.255 386.982 955.598 365.516C1063.94 344.05 1170.67 336.895 1279.01 340.472C1387.36 344.05 1494.08 358.361 1602.43 376.249C1710.77 394.137 1817.49 415.603 1872.48 426.336L1925.84 437.069V286.808L1872.48 286.808C1817.49 286.808 1710.77 286.808 1602.43 286.808C1494.08 286.808 1387.36 286.808 1279.01 286.808C1170.67 286.808 1063.94 286.808 955.598 286.808C847.255 286.808 740.529 286.808 632.185 286.808C523.842 286.808 417.115 286.808 308.772 286.808C200.428 286.808 93.7019 286.808 38.7216 286.808H-14.6416L-14.6416 480Z" fill="#E7D7C1"/>
<path fill-rule="evenodd" clip-rule="evenodd" d="M-14.6416 339.881L65.1479 348.924C148.129 357.966 307.708 376.052 470.478 363.995C633.249 351.938 792.828 308.734 955.598 308.734C1118.37 308.734 1277.95 351.938 1440.72 373.037C1603.49 394.137 1763.07 394.137 1846.05 394.137H1925.84V266.535H1846.05C1763.07 266.535 1603.49 266.535 1440.72 266.535C1277.95 266.535 1118.37 266.535 955.598 266.535C792.828 266.535 633.249 266.535 470.478 266.535C307.708 266.535 148.129 266.535 65.1479 266.535H-14.6416L-14.6416 339.881Z" fill="#735751"/>
<path fill-rule="evenodd" clip-rule="evenodd" d="M-14.6416 206.311L66.2117 200.348C147.065 194.982 308.772 223.006 470.478 206.311C632.185 189.019 753.465 144.895 915.172 144.895C1076.88 156.224 1279.01 194.982 1440.72 189.019C1602.42 183.056 1764.13 125.814 1844.98 97.1926L1925.84 68.5715V274.882H1844.98C1764.13 274.882 1602.42 274.882 1440.72 274.882C1279.01 274.882 1117.31 274.882 955.598 274.882C793.892 274.882 632.185 274.882 470.478 274.882C308.772 274.882 147.065 274.882 66.2117 274.882H-14.6416L-14.6416 206.311Z" fill="#735751"/>
<path d="M-96 261.167C-1.33423 281.242 207.705 296.944 332.017 296.944C456.329 296.944 693.836 238.509 906.076 238.509C1118.32 238.509 1423.24 296.944 1612.53 296.944C1801.83 296.944 2012.76 238.509 2178 204.223" stroke="#A78A7F" stroke-width="30" stroke-linecap="round"/>
</svg>
