<svg width="1920" height="364" viewBox="0 0 1920 364" fill="none" xmlns="http://www.w3.org/2000/svg">
<path fill-rule="evenodd" clip-rule="evenodd" d="M-382 216.28L-286.423 234.153C-190.846 252.027 0.307791 287.775 191.462 294.925C382.616 302.074 573.769 280.625 764.923 294.925C956.077 309.224 1147.23 359.27 1338.39 362.845C1529.54 366.42 1720.69 323.523 1816.27 302.074L1911.85 280.625V194.831H1816.27C1720.69 194.831 1529.54 194.831 1338.39 194.831C1147.23 194.831 956.077 194.831 764.923 194.831C573.769 194.831 382.616 194.831 191.462 194.831C0.307791 194.831 -190.846 194.831 -286.423 194.831H-382V216.28Z" fill="#E7D7C1"/>
<path fill-rule="evenodd" clip-rule="evenodd" d="M1934.41 87.8535L1853.59 94.083C1772.78 100.312 1611.14 112.772 1446.95 99.8104C1282.75 86.8493 1115.99 48.4681 952.654 43.9803C789.313 39.4926 629.388 68.8984 467.756 81.3574C306.123 93.8164 142.782 89.3286 61.1114 87.0848L-20.5591 84.8409L-6.89255 220.415L74.2085 217.01C155.31 213.605 317.512 206.795 479.714 199.985C641.916 193.174 804.118 186.364 966.32 179.554C1128.52 172.744 1290.72 165.934 1452.93 159.124C1615.13 152.314 1777.33 145.504 1858.43 142.099L1939.53 138.694L1934.41 87.8535Z" fill="#E7D7C1"/>
<path fill-rule="evenodd" clip-rule="evenodd" d="M-13.0596 124.306L67.5626 112.66C148.185 101.013 309.429 77.7207 470.673 77.7207C631.918 77.7207 793.162 101.013 954.406 112.66C1115.65 124.306 1276.89 124.306 1438.14 116.542C1599.38 108.777 1760.63 93.2491 1841.25 85.4849L1921.87 77.7207V217.476H1841.25C1760.63 217.476 1599.38 217.476 1438.14 217.476C1276.89 217.476 1115.65 217.476 954.406 217.476C793.162 217.476 631.918 217.476 470.673 217.476C309.429 217.476 148.185 217.476 67.5626 217.476H-13.0596V124.306Z" fill="#735751"/>
<path fill-rule="evenodd" clip-rule="evenodd" d="M-13.0596 292.53L67.1449 281.423C147.349 270.316 307.758 248.102 468.167 250.878C628.576 253.655 788.985 281.423 949.394 275.869C1109.8 270.316 1270.21 231.441 1430.62 220.334C1591.03 209.227 1751.44 225.887 1831.64 234.218L1911.85 242.548V159.245H1831.64C1751.44 159.245 1591.03 159.245 1430.62 159.245C1270.21 159.245 1109.8 159.245 949.394 159.245C788.985 159.245 628.576 159.245 468.167 159.245C307.758 159.245 147.349 159.245 67.1449 159.245H-13.0596V292.53Z" fill="#A78A7F"/>
<path d="M-230.113 253.385C-123.341 223.083 241.088 149.863 434.581 149.863C735.348 149.863 796.003 160.862 1009.55 186.743C1366.45 229.998 1894.8 68.015 1972 173.802" stroke="#735751" stroke-width="20"/>
</svg>
