<svg width="1920" height="805" viewBox="0 0 1920 805" fill="none" xmlns="http://www.w3.org/2000/svg">
<path fill-rule="evenodd" clip-rule="evenodd" d="M-11.5 805L68.5 747C148.5 690 308.5 574 468.5 584C628.5 594 788.5 728 948.5 738C1108.5 747 1268.5 632 1428.5 574C1588.5 517 1748.5 517 1828.5 517H1908.5V344H1828.5C1748.5 344 1588.5 344 1428.5 344C1268.5 344 1108.5 344 948.5 344C788.5 344 628.5 344 468.5 344C308.5 344 148.5 344 68.5 344H-11.5V805Z" fill="#A78A7F"/>
<path fill-rule="evenodd" clip-rule="evenodd" d="M-0.5 0L52.3 36C106.7 72 212.3 144 319.5 150C426.7 156 532.3 96 639.5 96C746.7 96 852.3 156 959.5 192C1066.7 228 1172.3 240 1279.5 234C1386.7 228 1492.3 204 1599.5 174C1706.7 144 1812.3 108 1866.7 90L1919.5 72V324H1866.7C1812.3 324 1706.7 324 1599.5 324C1492.3 324 1386.7 324 1279.5 324C1172.3 324 1066.7 324 959.5 324C852.3 324 746.7 324 639.5 324C532.3 324 426.7 324 319.5 324C212.3 324 106.7 324 52.3 324H-0.5V0Z" fill="#A78A7F"/>
<path fill-rule="evenodd" clip-rule="evenodd" d="M-0.5 234.992L78.4474 219.827C160.553 204.661 318.447 174.331 479.5 194.551C640.553 214.772 798.447 287.228 959.5 287.228C1120.55 287.228 1278.45 214.772 1439.5 179.386C1600.55 144 1758.45 144 1840.55 144H1919.5V358H1840.55C1758.45 358 1600.55 358 1439.5 358C1278.45 358 1120.55 358 959.5 358C798.447 358 640.553 358 479.5 358C318.447 358 160.553 358 78.4474 358H-0.5V234.992Z" fill="#735751"/>
<path fill-rule="evenodd" clip-rule="evenodd" d="M-0.5 459L79.5 469C159.5 478 319.5 431 479.5 459C639.5 488 759.5 562 919.5 562C1079.5 543 1279.5 478 1439.5 488C1599.5 498 1759.5 594 1839.5 642L1919.5 690V344H1839.5C1759.5 344 1599.5 344 1439.5 344C1279.5 344 1119.5 344 959.5 344C799.5 344 639.5 344 479.5 344C319.5 344 159.5 344 79.5 344H-0.5V459Z" fill="#735751"/>
<path d="M-81 367C12.6667 333.333 219.5 307 342.5 307C465.5 307 700.5 405 910.5 405C1120.5 405 1422.2 307 1609.5 307C1796.8 307 2005.5 405 2169 462.5" stroke="#A78A7F" stroke-width="30" stroke-linecap="round"/>
</svg>
